<svg width="106" height="28" viewBox="0 0 106 28" fill="none" xmlns="http://www.w3.org/2000/svg">
<path d="M0.575439 28H10.0686C14.5701 28 18.2193 24.3508 18.2193 19.8493H8.72612C4.22463 19.8493 0.575439 23.4985 0.575439 28Z" fill="#F22BB2"/>
<path d="M1 8.15069V20.137C5.5015 20.137 9.15069 16.4878 9.15069 11.9863V0C4.64919 0 1 3.64919 1 8.15069Z" fill="#9B44FF"/>
<path d="M27.4246 0H17.9314C13.4299 0 9.78076 3.64919 9.78076 8.15068H19.2739C23.7754 8.15068 27.4246 4.5015 27.4246 0Z" fill="#FE9A22"/>
<path d="M27.4246 19.3698V7.38354C22.9231 7.38354 19.2739 11.0327 19.2739 15.5342V27.5205C23.7754 27.5205 27.4246 23.8713 27.4246 19.3698Z" fill="#2EC5CE"/>
<path d="M38.4 22H40.49V15.85H45.73V13.75H40.49V9.69H46.93V7.6H38.4V22ZM47.732 22H49.842V16.55C49.842 15.9167 49.942 15.33 50.142 14.79C50.342 14.25 50.6954 13.8167 51.202 13.49C51.562 13.2567 51.9587 13.12 52.392 13.08C52.8254 13.04 53.2154 13.0667 53.562 13.16V11.2C53.0754 11.1067 52.5587 11.11 52.012 11.21C51.472 11.31 50.9987 11.51 50.592 11.81C50.192 12.0767 49.8587 12.4467 49.592 12.92V11.2H47.732V22ZM54.6664 9.43H56.7564V7.4H54.6664V9.43ZM54.6664 22H56.7564V11.2H54.6664V22ZM63.5494 22.3C64.596 22.3 65.546 22.0367 66.3994 21.51C67.2527 20.9767 67.8894 20.2267 68.3094 19.26L66.2594 18.61C65.7127 19.7567 64.776 20.33 63.4494 20.33C62.5427 20.33 61.8294 20.0567 61.3094 19.51C60.7894 18.9633 60.486 18.19 60.3994 17.19H68.4494C68.5227 15.8967 68.3694 14.78 67.9894 13.84C67.6094 12.9 67.0327 12.1767 66.2594 11.67C65.486 11.1567 64.5494 10.9 63.4494 10.9C62.396 10.9 61.4727 11.1367 60.6794 11.61C59.886 12.0833 59.266 12.7533 58.8194 13.62C58.3794 14.4867 58.1594 15.51 58.1594 16.69C58.1594 17.8033 58.3827 18.7833 58.8294 19.63C59.2827 20.47 59.9127 21.1267 60.7194 21.6C61.5327 22.0667 62.476 22.3 63.5494 22.3ZM63.5294 12.75C65.1627 12.75 66.0894 13.6867 66.3094 15.56H60.4494C60.5827 14.6467 60.906 13.95 61.4194 13.47C61.9327 12.99 62.636 12.75 63.5294 12.75ZM69.39 22H71.51V16.38C71.51 15.5267 71.6333 14.8467 71.88 14.34C72.1333 13.8267 72.4667 13.4567 72.88 13.23C73.2933 13.0033 73.75 12.89 74.25 12.89C74.8233 12.89 75.29 13.0067 75.65 13.24C76.01 13.4733 76.2867 13.78 76.48 14.16C76.6733 14.54 76.8033 14.9533 76.87 15.4C76.9433 15.84 76.98 16.27 76.98 16.69V22H79.1V16C79.1 15.6667 79.07 15.28 79.01 14.84C78.95 14.4 78.8367 13.95 78.67 13.49C78.5033 13.03 78.26 12.6067 77.94 12.22C77.6267 11.8267 77.2167 11.51 76.71 11.27C76.2033 11.03 75.5767 10.91 74.83 10.91C74.05 10.91 73.3567 11.05 72.75 11.33C72.15 11.61 71.6533 11.9967 71.26 12.49V11.2H69.39V22ZM84.858 22.3C85.538 22.3 86.1446 22.1867 86.678 21.96C87.218 21.7333 87.6846 21.4167 88.078 21.01V22H89.938V7.6H87.838V11.94C87.4646 11.6067 87.0313 11.35 86.538 11.17C86.0446 10.99 85.498 10.9 84.898 10.9C83.8846 10.9 83.008 11.15 82.268 11.65C81.5346 12.1433 80.968 12.82 80.568 13.68C80.168 14.5333 79.968 15.5033 79.968 16.59C79.968 17.67 80.1646 18.64 80.558 19.5C80.958 20.36 81.5246 21.0433 82.258 21.55C82.9913 22.05 83.858 22.3 84.858 22.3ZM85.148 20.41C84.4813 20.41 83.928 20.24 83.488 19.9C83.048 19.56 82.7213 19.1033 82.508 18.53C82.2946 17.95 82.188 17.3033 82.188 16.59C82.188 15.8833 82.2946 15.2433 82.508 14.67C82.728 14.0967 83.0613 13.64 83.508 13.3C83.9546 12.96 84.5246 12.79 85.218 12.79C86.2046 12.79 86.928 13.1433 87.388 13.85C87.848 14.5567 88.078 15.47 88.078 16.59C88.078 17.71 87.848 18.6267 87.388 19.34C86.928 20.0533 86.1813 20.41 85.148 20.41ZM91.9359 22H94.0259V7.3H91.9359V22ZM97.4889 26.8H99.4789L105.439 11.2H103.319L100.269 19.32L97.0789 11.2H94.8989L99.2689 21.95L97.4889 26.8Z" fill="white"/>
</svg>
