<svg width="255" height="204" viewBox="0 0 255 204" fill="none" xmlns="http://www.w3.org/2000/svg">
<g clip-path="url(#clip0)">
<rect y="16" width="72" height="72" rx="36" fill="#FAFAFA"/>
<path d="M42 50H48L45 46L42 50ZM42 54H48L45 58L42 54Z" fill="#D6B1FF"/>
<path d="M25 40H31V64H25C24.7348 64 24.4804 63.8946 24.2929 63.7071C24.1054 63.5196 24 63.2652 24 63V41C24 40.7348 24.1054 40.4804 24.2929 40.2929C24.4804 40.1054 24.7348 40 25 40Z" fill="#8C30F5"/>
<path d="M33 40H39C39.2652 40 39.5196 40.1054 39.7071 40.2929C39.8946 40.4804 40 40.7348 40 41V63C40 63.2652 39.8946 63.5196 39.7071 63.7071C39.5196 63.8946 39.2652 64 39 64H33V40Z" fill="#2EC5CE"/>
<path d="M88 72.2431C88 72.2431 136.764 79.8916 172.025 73.6741C207.286 67.4565 250.493 48.5912 250.493 48.5912" stroke="#D9DBE1" stroke-width="2" stroke-linecap="round" stroke-dasharray="2 6"/>
</g>
<path d="M1.44 125V112.04H3.609V125H1.44ZM10.2019 125.27C9.30792 125.27 8.52792 125.045 7.86192 124.595C7.19592 124.145 6.67992 123.533 6.31392 122.759C5.94792 121.985 5.76492 121.112 5.76492 120.14C5.76492 119.156 5.94792 118.28 6.31392 117.512C6.68592 116.738 7.21092 116.129 7.88892 115.685C8.56692 115.235 9.36492 115.01 10.2829 115.01C11.2069 115.01 11.9809 115.235 12.6049 115.685C13.2349 116.129 13.7119 116.738 14.0359 117.512C14.3599 118.286 14.5219 119.162 14.5219 120.14C14.5219 121.106 14.3599 121.979 14.0359 122.759C13.7119 123.533 13.2289 124.145 12.5869 124.595C11.9449 125.045 11.1499 125.27 10.2019 125.27ZM10.5349 123.326C11.1169 123.326 11.5849 123.194 11.9389 122.93C12.2989 122.66 12.5599 122.285 12.7219 121.805C12.8899 121.325 12.9739 120.77 12.9739 120.14C12.9739 119.504 12.8899 118.949 12.7219 118.475C12.5599 117.995 12.3049 117.623 11.9569 117.359C11.6089 117.089 11.1589 116.954 10.6069 116.954C10.0249 116.954 9.54492 117.098 9.16692 117.386C8.78892 117.668 8.50992 118.052 8.32992 118.538C8.14992 119.018 8.05992 119.552 8.05992 120.14C8.05992 120.734 8.14692 121.274 8.32092 121.76C8.50092 122.24 8.77392 122.621 9.13992 122.903C9.50592 123.185 9.97092 123.326 10.5349 123.326ZM12.9739 125V118.178H12.7039V112.04H14.8909V125H12.9739ZM21.8333 125.27C20.8493 125.27 19.9853 125.057 19.2413 124.631C18.4973 124.205 17.9153 123.614 17.4953 122.858C17.0813 122.102 16.8743 121.232 16.8743 120.248C16.8743 119.186 17.0783 118.265 17.4863 117.485C17.8943 116.699 18.4613 116.09 19.1873 115.658C19.9133 115.226 20.7533 115.01 21.7073 115.01C22.7153 115.01 23.5703 115.247 24.2723 115.721C24.9803 116.189 25.5053 116.852 25.8473 117.71C26.1893 118.568 26.3183 119.579 26.2343 120.743H24.0833V119.951C24.0773 118.895 23.8913 118.124 23.5253 117.638C23.1593 117.152 22.5833 116.909 21.7973 116.909C20.9093 116.909 20.2493 117.185 19.8173 117.737C19.3853 118.283 19.1693 119.084 19.1693 120.14C19.1693 121.124 19.3853 121.886 19.8173 122.426C20.2493 122.966 20.8793 123.236 21.7073 123.236C22.2413 123.236 22.7003 123.119 23.0843 122.885C23.4743 122.645 23.7743 122.3 23.9843 121.85L26.1263 122.498C25.7543 123.374 25.1783 124.055 24.3983 124.541C23.6243 125.027 22.7693 125.27 21.8333 125.27ZM18.4853 120.743V119.105H25.1723V120.743H18.4853ZM30.7846 125.27C30.0826 125.27 29.4886 125.138 29.0026 124.874C28.5166 124.604 28.1476 124.247 27.8956 123.803C27.6496 123.359 27.5266 122.87 27.5266 122.336C27.5266 121.868 27.6046 121.448 27.7606 121.076C27.9166 120.698 28.1566 120.374 28.4806 120.104C28.8046 119.828 29.2246 119.603 29.7406 119.429C30.1306 119.303 30.5866 119.189 31.1086 119.087C31.6366 118.985 32.2066 118.892 32.8186 118.808C33.4366 118.718 34.0816 118.622 34.7536 118.52L33.9796 118.961C33.9856 118.289 33.8356 117.794 33.5296 117.476C33.2236 117.158 32.7076 116.999 31.9816 116.999C31.5436 116.999 31.1206 117.101 30.7126 117.305C30.3046 117.509 30.0196 117.86 29.8576 118.358L27.8776 117.737C28.1176 116.915 28.5736 116.255 29.2456 115.757C29.9236 115.259 30.8356 115.01 31.9816 115.01C32.8456 115.01 33.6046 115.151 34.2586 115.433C34.9186 115.715 35.4076 116.177 35.7256 116.819C35.8996 117.161 36.0046 117.512 36.0406 117.872C36.0766 118.226 36.0946 118.613 36.0946 119.033V125H34.1956V122.894L34.5106 123.236C34.0726 123.938 33.5596 124.454 32.9716 124.784C32.3896 125.108 31.6606 125.27 30.7846 125.27ZM31.2166 123.542C31.7086 123.542 32.1286 123.455 32.4766 123.281C32.8246 123.107 33.1006 122.894 33.3046 122.642C33.5146 122.39 33.6556 122.153 33.7276 121.931C33.8416 121.655 33.9046 121.34 33.9166 120.986C33.9346 120.626 33.9436 120.335 33.9436 120.113L34.6096 120.311C33.9556 120.413 33.3946 120.503 32.9266 120.581C32.4586 120.659 32.0566 120.734 31.7206 120.806C31.3846 120.872 31.0876 120.947 30.8296 121.031C30.5776 121.121 30.3646 121.226 30.1906 121.346C30.0166 121.466 29.8816 121.604 29.7856 121.76C29.6956 121.916 29.6506 122.099 29.6506 122.309C29.6506 122.549 29.7106 122.762 29.8306 122.948C29.9506 123.128 30.1246 123.272 30.3526 123.38C30.5866 123.488 30.8746 123.542 31.2166 123.542ZM44.1347 125C43.4927 125.12 42.8627 125.171 42.2447 125.153C41.6327 125.141 41.0837 125.03 40.5977 124.82C40.1117 124.604 39.7427 124.265 39.4907 123.803C39.2687 123.383 39.1517 122.954 39.1397 122.516C39.1277 122.078 39.1217 121.583 39.1217 121.031V112.58H41.2817V120.905C41.2817 121.295 41.2847 121.637 41.2907 121.931C41.3027 122.225 41.3657 122.465 41.4797 122.651C41.6957 123.011 42.0407 123.212 42.5147 123.254C42.9887 123.296 43.5287 123.272 44.1347 123.182V125ZM37.3577 116.981V115.28H44.1347V116.981H37.3577ZM50.1517 125.27C49.1677 125.27 48.3037 125.057 47.5597 124.631C46.8157 124.205 46.2337 123.614 45.8137 122.858C45.3997 122.102 45.1927 121.232 45.1927 120.248C45.1927 119.186 45.3967 118.265 45.8047 117.485C46.2127 116.699 46.7797 116.09 47.5057 115.658C48.2317 115.226 49.0717 115.01 50.0257 115.01C51.0337 115.01 51.8887 115.247 52.5907 115.721C53.2987 116.189 53.8237 116.852 54.1657 117.71C54.5077 118.568 54.6367 119.579 54.5527 120.743H52.4017V119.951C52.3957 118.895 52.2097 118.124 51.8437 117.638C51.4777 117.152 50.9017 116.909 50.1157 116.909C49.2277 116.909 48.5677 117.185 48.1357 117.737C47.7037 118.283 47.4877 119.084 47.4877 120.14C47.4877 121.124 47.7037 121.886 48.1357 122.426C48.5677 122.966 49.1977 123.236 50.0257 123.236C50.5597 123.236 51.0187 123.119 51.4027 122.885C51.7927 122.645 52.0927 122.3 52.3027 121.85L54.4447 122.498C54.0727 123.374 53.4967 124.055 52.7167 124.541C51.9427 125.027 51.0877 125.27 50.1517 125.27ZM46.8037 120.743V119.105H53.4907V120.743H46.8037Z" fill="black"/>
<path d="M4.184 155V144.608H0.16V143.48H9.384V144.608H5.36V155H4.184ZM13.174 155.216C12.6567 155.216 12.2033 155.136 11.814 154.976C11.43 154.816 11.102 154.6 10.83 154.328C10.5633 154.056 10.3473 153.747 10.182 153.4C10.0167 153.048 9.89667 152.677 9.822 152.288C9.74733 151.893 9.71 151.501 9.71 151.112V146.36H10.894V150.768C10.894 151.243 10.9393 151.683 11.03 152.088C11.1207 152.493 11.2647 152.848 11.462 153.152C11.6647 153.451 11.9233 153.683 12.238 153.848C12.558 154.013 12.9447 154.096 13.398 154.096C13.814 154.096 14.1793 154.024 14.494 153.88C14.814 153.736 15.0807 153.531 15.294 153.264C15.5127 152.992 15.678 152.664 15.79 152.28C15.902 151.891 15.958 151.453 15.958 150.968L16.79 151.152C16.79 152.037 16.6353 152.781 16.326 153.384C16.0167 153.987 15.59 154.443 15.046 154.752C14.502 155.061 13.878 155.216 13.174 155.216ZM16.078 155V152.872H15.958V146.36H17.134V155H16.078ZM19.37 155V146.36H20.426V148.44L20.218 148.168C20.314 147.912 20.4393 147.677 20.594 147.464C20.7487 147.245 20.9167 147.067 21.098 146.928C21.322 146.731 21.5833 146.581 21.882 146.48C22.1807 146.373 22.482 146.312 22.786 146.296C23.09 146.275 23.3673 146.296 23.618 146.36V147.464C23.3033 147.384 22.9593 147.365 22.586 147.408C22.2127 147.451 21.8687 147.6 21.554 147.856C21.266 148.08 21.05 148.349 20.906 148.664C20.762 148.973 20.666 149.304 20.618 149.656C20.57 150.003 20.546 150.347 20.546 150.688V155H19.37ZM31.3756 155V150.592C31.3756 150.112 31.3303 149.672 31.2396 149.272C31.149 148.867 31.0023 148.515 30.7996 148.216C30.6023 147.912 30.3436 147.677 30.0236 147.512C29.709 147.347 29.325 147.264 28.8716 147.264C28.4556 147.264 28.0876 147.336 27.7676 147.48C27.453 147.624 27.1863 147.832 26.9676 148.104C26.7543 148.371 26.5916 148.696 26.4796 149.08C26.3676 149.464 26.3116 149.901 26.3116 150.392L25.4796 150.208C25.4796 149.323 25.6343 148.579 25.9436 147.976C26.253 147.373 26.6796 146.917 27.2236 146.608C27.7676 146.299 28.3916 146.144 29.0956 146.144C29.613 146.144 30.0636 146.224 30.4476 146.384C30.837 146.544 31.165 146.76 31.4316 147.032C31.7036 147.304 31.9223 147.616 32.0876 147.968C32.253 148.315 32.373 148.685 32.4476 149.08C32.5223 149.469 32.5596 149.859 32.5596 150.248V155H31.3756ZM25.1276 155V146.36H26.1916V148.488H26.3116V155H25.1276ZM39.0707 158.84L40.7428 154.304L40.7668 155.648L36.9827 146.36H38.2308L41.3348 154.128H40.8228L43.6868 146.36H44.8868L40.2468 158.84H39.0707ZM49.5718 155.24C48.7131 155.24 47.9798 155.045 47.3718 154.656C46.7638 154.267 46.2971 153.728 45.9718 153.04C45.6464 152.352 45.4838 151.563 45.4838 150.672C45.4838 149.765 45.6491 148.971 45.9798 148.288C46.3104 147.605 46.7798 147.075 47.3878 146.696C48.0011 146.312 48.7291 146.12 49.5718 146.12C50.4358 146.12 51.1718 146.315 51.7798 146.704C52.3931 147.088 52.8598 147.624 53.1798 148.312C53.5051 148.995 53.6678 149.781 53.6678 150.672C53.6678 151.579 53.5051 152.376 53.1798 153.064C52.8544 153.747 52.3851 154.28 51.7718 154.664C51.1584 155.048 50.4251 155.24 49.5718 155.24ZM49.5718 154.112C50.5318 154.112 51.2464 153.795 51.7158 153.16C52.1851 152.52 52.4198 151.691 52.4198 150.672C52.4198 149.627 52.1824 148.795 51.7078 148.176C51.2384 147.557 50.5264 147.248 49.5718 147.248C48.9264 147.248 48.3931 147.395 47.9718 147.688C47.5558 147.976 47.2438 148.379 47.0358 148.896C46.8331 149.408 46.7318 150 46.7318 150.672C46.7318 151.712 46.9718 152.547 47.4518 153.176C47.9318 153.8 48.6384 154.112 49.5718 154.112ZM58.7365 155.216C58.2192 155.216 57.7658 155.136 57.3765 154.976C56.9925 154.816 56.6645 154.6 56.3925 154.328C56.1258 154.056 55.9098 153.747 55.7445 153.4C55.5792 153.048 55.4592 152.677 55.3845 152.288C55.3098 151.893 55.2725 151.501 55.2725 151.112V146.36H56.4565V150.768C56.4565 151.243 56.5018 151.683 56.5925 152.088C56.6832 152.493 56.8272 152.848 57.0245 153.152C57.2272 153.451 57.4858 153.683 57.8005 153.848C58.1205 154.013 58.5072 154.096 58.9605 154.096C59.3765 154.096 59.7418 154.024 60.0565 153.88C60.3765 153.736 60.6432 153.531 60.8565 153.264C61.0752 152.992 61.2405 152.664 61.3525 152.28C61.4645 151.891 61.5205 151.453 61.5205 150.968L62.3525 151.152C62.3525 152.037 62.1978 152.781 61.8885 153.384C61.5792 153.987 61.1525 154.443 60.6085 154.752C60.0645 155.061 59.4405 155.216 58.7365 155.216ZM61.6405 155V152.872H61.5205V146.36H62.6965V155H61.6405ZM64.9325 155V146.36H65.9885V148.44L65.7805 148.168C65.8765 147.912 66.0018 147.677 66.1565 147.464C66.3112 147.245 66.4792 147.067 66.6605 146.928C66.8845 146.731 67.1458 146.581 67.4445 146.48C67.7432 146.373 68.0445 146.312 68.3485 146.296C68.6525 146.275 68.9298 146.296 69.1805 146.36V147.464C68.8658 147.384 68.5218 147.365 68.1485 147.408C67.7752 147.451 67.4312 147.6 67.1165 147.856C66.8285 148.08 66.6125 148.349 66.4685 148.664C66.3245 148.973 66.2285 149.304 66.1805 149.656C66.1325 150.003 66.1085 150.347 66.1085 150.688V155H64.9325ZM74.0613 144.72V143.4H75.2373V144.72H74.0613ZM74.0613 155V146.36H75.2373V155H74.0613ZM80.9876 155.24C80.1823 155.24 79.4943 155.04 78.9236 154.64C78.353 154.235 77.9156 153.688 77.6116 153C77.3076 152.312 77.1556 151.536 77.1556 150.672C77.1556 149.813 77.305 149.04 77.6036 148.352C77.9076 147.664 78.3423 147.12 78.9076 146.72C79.473 146.32 80.1503 146.12 80.9396 146.12C81.7503 146.12 82.433 146.317 82.9876 146.712C83.5423 147.107 83.961 147.648 84.2436 148.336C84.5316 149.019 84.6756 149.797 84.6756 150.672C84.6756 151.531 84.5343 152.307 84.2516 153C83.969 153.688 83.553 154.235 83.0036 154.64C82.4543 155.04 81.7823 155.24 80.9876 155.24ZM81.1076 154.144C81.721 154.144 82.2276 153.995 82.6276 153.696C83.0276 153.397 83.3263 152.987 83.5236 152.464C83.721 151.936 83.8196 151.339 83.8196 150.672C83.8196 149.995 83.721 149.397 83.5236 148.88C83.3263 148.357 83.0276 147.949 82.6276 147.656C82.233 147.363 81.7343 147.216 81.1316 147.216C80.513 147.216 80.001 147.368 79.5956 147.672C79.1903 147.976 78.889 148.389 78.6916 148.912C78.4996 149.435 78.4036 150.021 78.4036 150.672C78.4036 151.328 78.5023 151.92 78.6996 152.448C78.9023 152.971 79.2036 153.384 79.6036 153.688C80.0036 153.992 80.505 154.144 81.1076 154.144ZM83.8196 155V148.496H83.6916V143.48H84.8756V155H83.8196ZM90.776 155.24C89.9333 155.24 89.2027 155.053 88.584 154.68C87.9707 154.307 87.4933 153.781 87.152 153.104C86.8107 152.427 86.64 151.632 86.64 150.72C86.64 149.776 86.808 148.96 87.144 148.272C87.48 147.584 87.952 147.053 88.56 146.68C89.1733 146.307 89.896 146.12 90.728 146.12C91.5813 146.12 92.3093 146.317 92.912 146.712C93.5147 147.101 93.9707 147.661 94.28 148.392C94.5893 149.123 94.7307 149.995 94.704 151.008H93.504V150.592C93.4827 149.472 93.24 148.627 92.776 148.056C92.3173 147.485 91.6453 147.2 90.76 147.2C89.832 147.2 89.12 147.501 88.624 148.104C88.1333 148.707 87.888 149.565 87.888 150.68C87.888 151.768 88.1333 152.613 88.624 153.216C89.12 153.813 89.8213 154.112 90.728 154.112C91.3467 154.112 91.8853 153.971 92.344 153.688C92.808 153.4 93.1733 152.987 93.44 152.448L94.536 152.872C94.1947 153.624 93.6907 154.208 93.024 154.624C92.3627 155.035 91.6133 155.24 90.776 155.24ZM87.472 151.008V150.024H94.072V151.008H87.472ZM98.7951 155.24C98.1445 155.24 97.5978 155.123 97.1551 154.888C96.7178 154.653 96.3898 154.341 96.1711 153.952C95.9525 153.563 95.8431 153.139 95.8431 152.68C95.8431 152.211 95.9365 151.811 96.1231 151.48C96.3151 151.144 96.5738 150.869 96.8991 150.656C97.2298 150.443 97.6111 150.28 98.0431 150.168C98.4805 150.061 98.9631 149.968 99.4911 149.888C100.024 149.803 100.544 149.731 101.051 149.672C101.563 149.608 102.011 149.547 102.395 149.488L101.979 149.744C101.995 148.891 101.83 148.259 101.483 147.848C101.136 147.437 100.534 147.232 99.6751 147.232C99.0831 147.232 98.5818 147.365 98.1711 147.632C97.7658 147.899 97.4805 148.32 97.3151 148.896L96.1711 148.56C96.3685 147.787 96.7658 147.187 97.3631 146.76C97.9605 146.333 98.7365 146.12 99.6911 146.12C100.48 146.12 101.15 146.269 101.699 146.568C102.254 146.861 102.646 147.288 102.875 147.848C102.982 148.099 103.051 148.379 103.083 148.688C103.115 148.997 103.131 149.312 103.131 149.632V155H102.083V152.832L102.387 152.96C102.094 153.701 101.638 154.267 101.019 154.656C100.4 155.045 99.6591 155.24 98.7951 155.24ZM98.9311 154.224C99.4805 154.224 99.9605 154.125 100.371 153.928C100.782 153.731 101.112 153.461 101.363 153.12C101.614 152.773 101.776 152.384 101.851 151.952C101.915 151.675 101.95 151.371 101.955 151.04C101.96 150.704 101.963 150.453 101.963 150.288L102.411 150.52C102.011 150.573 101.576 150.627 101.107 150.68C100.643 150.733 100.184 150.795 99.7311 150.864C99.2831 150.933 98.8778 151.016 98.5151 151.112C98.2698 151.181 98.0325 151.28 97.8031 151.408C97.5738 151.531 97.3845 151.696 97.2351 151.904C97.0911 152.112 97.0191 152.371 97.0191 152.68C97.0191 152.931 97.0805 153.173 97.2031 153.408C97.3311 153.643 97.5338 153.837 97.8111 153.992C98.0938 154.147 98.4671 154.224 98.9311 154.224ZM109.273 155V145.72C109.273 145.496 109.284 145.275 109.305 145.056C109.332 144.837 109.382 144.629 109.457 144.432C109.532 144.229 109.649 144.043 109.809 143.872C109.985 143.68 110.177 143.541 110.385 143.456C110.593 143.365 110.809 143.307 111.033 143.28C111.262 143.253 111.486 143.24 111.705 143.24H112.809V144.232H111.785C111.337 144.232 111.001 144.341 110.777 144.56C110.558 144.779 110.449 145.123 110.449 145.592V155H109.273ZM107.777 147.368V146.36H112.809V147.368H107.777ZM114.089 155V146.36H115.145V148.44L114.937 148.168C115.033 147.912 115.158 147.677 115.313 147.464C115.467 147.245 115.635 147.067 115.817 146.928C116.041 146.731 116.302 146.581 116.601 146.48C116.899 146.373 117.201 146.312 117.505 146.296C117.809 146.275 118.086 146.296 118.337 146.36V147.464C118.022 147.384 117.678 147.365 117.305 147.408C116.931 147.451 116.587 147.6 116.273 147.856C115.985 148.08 115.769 148.349 115.625 148.664C115.481 148.973 115.385 149.304 115.337 149.656C115.289 150.003 115.265 150.347 115.265 150.688V155H114.089ZM123.306 155.24C122.447 155.24 121.714 155.045 121.106 154.656C120.498 154.267 120.031 153.728 119.706 153.04C119.381 152.352 119.218 151.563 119.218 150.672C119.218 149.765 119.383 148.971 119.714 148.288C120.045 147.605 120.514 147.075 121.122 146.696C121.735 146.312 122.463 146.12 123.306 146.12C124.17 146.12 124.906 146.315 125.514 146.704C126.127 147.088 126.594 147.624 126.914 148.312C127.239 148.995 127.402 149.781 127.402 150.672C127.402 151.579 127.239 152.376 126.914 153.064C126.589 153.747 126.119 154.28 125.506 154.664C124.893 155.048 124.159 155.24 123.306 155.24ZM123.306 154.112C124.266 154.112 124.981 153.795 125.45 153.16C125.919 152.52 126.154 151.691 126.154 150.672C126.154 149.627 125.917 148.795 125.442 148.176C124.973 147.557 124.261 147.248 123.306 147.248C122.661 147.248 122.127 147.395 121.706 147.688C121.29 147.976 120.978 148.379 120.77 148.896C120.567 149.408 120.466 150 120.466 150.672C120.466 151.712 120.706 152.547 121.186 153.176C121.666 153.8 122.373 154.112 123.306 154.112ZM139.471 155L139.479 149.328C139.479 148.661 139.292 148.139 138.919 147.76C138.551 147.376 138.082 147.184 137.511 147.184C137.186 147.184 136.868 147.259 136.559 147.408C136.25 147.557 135.994 147.797 135.791 148.128C135.594 148.459 135.495 148.891 135.495 149.424L134.799 149.224C134.783 148.605 134.903 148.064 135.159 147.6C135.42 147.136 135.778 146.776 136.231 146.52C136.69 146.259 137.207 146.128 137.783 146.128C138.652 146.128 139.348 146.397 139.871 146.936C140.394 147.469 140.655 148.192 140.655 149.104L140.647 155H139.471ZM129.159 155V146.36H130.215V148.488H130.343V155H129.159ZM134.327 155L134.335 149.408C134.335 148.72 134.151 148.179 133.783 147.784C133.42 147.384 132.94 147.184 132.343 147.184C131.746 147.184 131.263 147.389 130.895 147.8C130.527 148.205 130.343 148.747 130.343 149.424L129.639 149.04C129.639 148.485 129.77 147.989 130.031 147.552C130.292 147.109 130.65 146.763 131.103 146.512C131.556 146.256 132.071 146.128 132.647 146.128C133.196 146.128 133.684 146.245 134.111 146.48C134.543 146.715 134.882 147.056 135.127 147.504C135.372 147.952 135.495 148.496 135.495 149.136L135.487 155H134.327ZM149.516 155.24C148.647 155.24 147.911 155.045 147.309 154.656C146.706 154.267 146.247 153.731 145.933 153.048C145.623 152.36 145.463 151.571 145.453 150.68C145.463 149.773 145.629 148.979 145.949 148.296C146.269 147.608 146.73 147.075 147.333 146.696C147.935 146.312 148.666 146.12 149.525 146.12C150.399 146.12 151.159 146.333 151.805 146.76C152.455 147.187 152.901 147.771 153.141 148.512L151.989 148.88C151.786 148.363 151.463 147.963 151.021 147.68C150.583 147.392 150.082 147.248 149.516 147.248C148.882 147.248 148.357 147.395 147.941 147.688C147.525 147.976 147.215 148.379 147.013 148.896C146.81 149.413 146.706 150.008 146.701 150.68C146.711 151.715 146.951 152.547 147.421 153.176C147.89 153.8 148.589 154.112 149.516 154.112C150.103 154.112 150.602 153.979 151.013 153.712C151.429 153.44 151.743 153.045 151.957 152.528L153.141 152.88C152.821 153.648 152.351 154.235 151.733 154.64C151.114 155.04 150.375 155.24 149.516 155.24ZM158.166 155.24C157.307 155.24 156.574 155.045 155.966 154.656C155.358 154.267 154.891 153.728 154.566 153.04C154.24 152.352 154.078 151.563 154.078 150.672C154.078 149.765 154.243 148.971 154.574 148.288C154.904 147.605 155.374 147.075 155.982 146.696C156.595 146.312 157.323 146.12 158.166 146.12C159.03 146.12 159.766 146.315 160.374 146.704C160.987 147.088 161.454 147.624 161.774 148.312C162.099 148.995 162.262 149.781 162.262 150.672C162.262 151.579 162.099 152.376 161.774 153.064C161.448 153.747 160.979 154.28 160.366 154.664C159.752 155.048 159.019 155.24 158.166 155.24ZM158.166 154.112C159.126 154.112 159.84 153.795 160.31 153.16C160.779 152.52 161.014 151.691 161.014 150.672C161.014 149.627 160.776 148.795 160.302 148.176C159.832 147.557 159.12 147.248 158.166 147.248C157.52 147.248 156.987 147.395 156.566 147.688C156.15 147.976 155.838 148.379 155.63 148.896C155.427 149.408 155.326 150 155.326 150.672C155.326 151.712 155.566 152.547 156.046 153.176C156.526 153.8 157.232 154.112 158.166 154.112ZM170.266 155V150.592C170.266 150.112 170.221 149.672 170.13 149.272C170.04 148.867 169.893 148.515 169.69 148.216C169.493 147.912 169.234 147.677 168.914 147.512C168.6 147.347 168.216 147.264 167.762 147.264C167.346 147.264 166.978 147.336 166.658 147.48C166.344 147.624 166.077 147.832 165.858 148.104C165.645 148.371 165.482 148.696 165.37 149.08C165.258 149.464 165.202 149.901 165.202 150.392L164.37 150.208C164.37 149.323 164.525 148.579 164.834 147.976C165.144 147.373 165.57 146.917 166.114 146.608C166.658 146.299 167.282 146.144 167.986 146.144C168.504 146.144 168.954 146.224 169.338 146.384C169.728 146.544 170.056 146.76 170.322 147.032C170.594 147.304 170.813 147.616 170.978 147.968C171.144 148.315 171.264 148.685 171.338 149.08C171.413 149.469 171.45 149.859 171.45 150.248V155H170.266ZM164.018 155V146.36H165.082V148.488H165.202V155H164.018ZM177.048 155.24C176.178 155.24 175.442 155.045 174.84 154.656C174.237 154.267 173.778 153.731 173.464 153.048C173.154 152.36 172.994 151.571 172.984 150.68C172.994 149.773 173.16 148.979 173.48 148.296C173.8 147.608 174.261 147.075 174.864 146.696C175.466 146.312 176.197 146.12 177.056 146.12C177.93 146.12 178.69 146.333 179.336 146.76C179.986 147.187 180.432 147.771 180.672 148.512L179.52 148.88C179.317 148.363 178.994 147.963 178.552 147.68C178.114 147.392 177.613 147.248 177.048 147.248C176.413 147.248 175.888 147.395 175.472 147.688C175.056 147.976 174.746 148.379 174.544 148.896C174.341 149.413 174.237 150.008 174.232 150.68C174.242 151.715 174.482 152.547 174.952 153.176C175.421 153.8 176.12 154.112 177.048 154.112C177.634 154.112 178.133 153.979 178.544 153.712C178.96 153.44 179.274 153.045 179.488 152.528L180.672 152.88C180.352 153.648 179.882 154.235 179.264 154.64C178.645 155.04 177.906 155.24 177.048 155.24ZM185.745 155.24C184.902 155.24 184.171 155.053 183.553 154.68C182.939 154.307 182.462 153.781 182.121 153.104C181.779 152.427 181.609 151.632 181.609 150.72C181.609 149.776 181.777 148.96 182.113 148.272C182.449 147.584 182.921 147.053 183.529 146.68C184.142 146.307 184.865 146.12 185.697 146.12C186.55 146.12 187.278 146.317 187.881 146.712C188.483 147.101 188.939 147.661 189.249 148.392C189.558 149.123 189.699 149.995 189.673 151.008H188.473V150.592C188.451 149.472 188.209 148.627 187.745 148.056C187.286 147.485 186.614 147.2 185.729 147.2C184.801 147.2 184.089 147.501 183.593 148.104C183.102 148.707 182.857 149.565 182.857 150.68C182.857 151.768 183.102 152.613 183.593 153.216C184.089 153.813 184.79 154.112 185.697 154.112C186.315 154.112 186.854 153.971 187.313 153.688C187.777 153.4 188.142 152.987 188.409 152.448L189.505 152.872C189.163 153.624 188.659 154.208 187.993 154.624C187.331 155.035 186.582 155.24 185.745 155.24ZM182.441 151.008V150.024H189.041V151.008H182.441ZM195.094 155.24C194.299 155.24 193.627 155.04 193.078 154.64C192.528 154.235 192.112 153.688 191.83 153C191.547 152.307 191.406 151.531 191.406 150.672C191.406 149.797 191.547 149.019 191.83 148.336C192.118 147.648 192.539 147.107 193.094 146.712C193.648 146.317 194.331 146.12 195.142 146.12C195.931 146.12 196.608 146.32 197.174 146.72C197.739 147.12 198.171 147.664 198.47 148.352C198.774 149.04 198.926 149.813 198.926 150.672C198.926 151.536 198.774 152.312 198.47 153C198.166 153.688 197.728 154.235 197.158 154.64C196.587 155.04 195.899 155.24 195.094 155.24ZM191.206 158.84V146.36H192.262V152.864H192.39V158.84H191.206ZM194.974 154.144C195.576 154.144 196.078 153.992 196.478 153.688C196.878 153.384 197.176 152.971 197.374 152.448C197.576 151.92 197.678 151.328 197.678 150.672C197.678 150.021 197.579 149.435 197.382 148.912C197.184 148.389 196.883 147.976 196.478 147.672C196.078 147.368 195.568 147.216 194.95 147.216C194.347 147.216 193.846 147.363 193.446 147.656C193.051 147.949 192.755 148.357 192.558 148.88C192.36 149.397 192.262 149.995 192.262 150.672C192.262 151.339 192.36 151.936 192.558 152.464C192.755 152.987 193.054 153.397 193.454 153.696C193.854 153.995 194.36 154.144 194.974 154.144ZM205.387 155C204.901 155.101 204.421 155.141 203.947 155.12C203.477 155.099 203.056 154.997 202.683 154.816C202.315 154.635 202.035 154.352 201.843 153.968C201.688 153.648 201.603 153.325 201.587 153C201.576 152.669 201.571 152.293 201.571 151.872V143.96H202.739V151.824C202.739 152.187 202.741 152.491 202.747 152.736C202.757 152.976 202.813 153.189 202.915 153.376C203.107 153.733 203.411 153.947 203.827 154.016C204.248 154.085 204.768 154.069 205.387 153.968V155ZM199.723 147.368V146.36H205.387V147.368H199.723ZM214.996 155C214.511 155.101 214.031 155.141 213.556 155.12C213.087 155.099 212.665 154.997 212.292 154.816C211.924 154.635 211.644 154.352 211.452 153.968C211.297 153.648 211.212 153.325 211.196 153C211.185 152.669 211.18 152.293 211.18 151.872V143.96H212.348V151.824C212.348 152.187 212.351 152.491 212.356 152.736C212.367 152.976 212.423 153.189 212.524 153.376C212.716 153.733 213.02 153.947 213.436 154.016C213.857 154.085 214.377 154.069 214.996 153.968V155ZM209.332 147.368V146.36H214.996V147.368H209.332ZM219.994 155.24C219.135 155.24 218.402 155.045 217.794 154.656C217.186 154.267 216.719 153.728 216.394 153.04C216.068 152.352 215.906 151.563 215.906 150.672C215.906 149.765 216.071 148.971 216.402 148.288C216.732 147.605 217.202 147.075 217.81 146.696C218.423 146.312 219.151 146.12 219.994 146.12C220.858 146.12 221.594 146.315 222.202 146.704C222.815 147.088 223.282 147.624 223.602 148.312C223.927 148.995 224.09 149.781 224.09 150.672C224.09 151.579 223.927 152.376 223.602 153.064C223.276 153.747 222.807 154.28 222.194 154.664C221.58 155.048 220.847 155.24 219.994 155.24ZM219.994 154.112C220.954 154.112 221.668 153.795 222.138 153.16C222.607 152.52 222.842 151.691 222.842 150.672C222.842 149.627 222.604 148.795 222.13 148.176C221.66 147.557 220.948 147.248 219.994 147.248C219.348 147.248 218.815 147.395 218.394 147.688C217.978 147.976 217.666 148.379 217.458 148.896C217.255 149.408 217.154 150 217.154 150.672C217.154 151.712 217.394 152.547 217.874 153.176C218.354 153.8 219.06 154.112 219.994 154.112ZM1.12 181V169.48H2.2L6.728 179.168L11.232 169.48H12.328V180.992H11.208V172.104L7.104 181H6.344L2.248 172.104V181H1.12ZM17.5011 181L13.5331 169.48H14.7571L18.2691 179.664L21.8051 169.48H23.0291L19.0611 181H17.5011ZM24.2294 181V169.48H28.6774C28.7894 169.48 28.9147 169.485 29.0534 169.496C29.1974 169.501 29.3414 169.517 29.4854 169.544C30.088 169.635 30.5974 169.845 31.0134 170.176C31.4347 170.501 31.752 170.912 31.9654 171.408C32.184 171.904 32.2934 172.453 32.2934 173.056C32.2934 173.653 32.184 174.2 31.9654 174.696C31.7467 175.192 31.4267 175.605 31.0054 175.936C30.5894 176.261 30.0827 176.469 29.4854 176.56C29.3414 176.581 29.1974 176.597 29.0534 176.608C28.9147 176.619 28.7894 176.624 28.6774 176.624H25.4054V181H24.2294ZM25.4054 175.504H28.6454C28.7414 175.504 28.8534 175.499 28.9814 175.488C29.1094 175.477 29.2347 175.459 29.3574 175.432C29.752 175.347 30.0747 175.184 30.3254 174.944C30.5814 174.704 30.7707 174.419 30.8934 174.088C31.0214 173.757 31.0854 173.413 31.0854 173.056C31.0854 172.699 31.0214 172.355 30.8934 172.024C30.7707 171.688 30.5814 171.4 30.3254 171.16C30.0747 170.92 29.752 170.757 29.3574 170.672C29.2347 170.645 29.1094 170.629 28.9814 170.624C28.8534 170.613 28.7414 170.608 28.6454 170.608H25.4054V175.504Z" fill="black"/>
<defs>
<clipPath id="clip0">
<rect width="252.417" height="72" fill="white" transform="translate(0 16)"/>
</clipPath>
</defs>
</svg>
