<svg width="255" height="204" viewBox="0 0 255 204" fill="none" xmlns="http://www.w3.org/2000/svg">
<g clip-path="url(#clip0)">
<rect y="16" width="72" height="72" rx="36" fill="#FAFAFA"/>
<path d="M29 41H26C25.7348 41 25.4804 41.1054 25.2929 41.2929C25.1054 41.4804 25 41.7348 25 42V62C25 62.2652 25.1054 62.5196 25.2929 62.7071C25.4804 62.8946 25.7348 63 26 63H29V41Z" fill="#D6B1FF"/>
<path d="M31 63H41V41H31V63ZM36 59C35.7348 59 35.4804 58.8946 35.2929 58.7071C35.1054 58.5196 35 58.2652 35 58C35 57.7348 35.1054 57.4804 35.2929 57.2929C35.4804 57.1054 35.7348 57 36 57C36.2652 57 36.5196 57.1054 36.7071 57.2929C36.8946 57.4804 37 57.7348 37 58C37 58.2652 36.8946 58.5196 36.7071 58.7071C36.5196 58.8946 36.2652 59 36 59ZM36 45C36.2652 45 36.5196 45.1054 36.7071 45.2929C36.8946 45.4804 37 45.7348 37 46C37 46.2652 36.8946 46.5196 36.7071 46.7071C36.5196 46.8946 36.2652 47 36 47C35.7348 47 35.4804 46.8946 35.2929 46.7071C35.1054 46.5196 35 46.2652 35 46C35 45.7348 35.1054 45.4804 35.2929 45.2929C35.4804 45.1054 35.7348 45 36 45ZM36 51C36.2652 51 36.5196 51.1054 36.7071 51.2929C36.8946 51.4804 37 51.7348 37 52C37 52.2652 36.8946 52.5196 36.7071 52.7071C36.5196 52.8946 36.2652 53 36 53C35.7348 53 35.4804 52.8946 35.2929 52.7071C35.1054 52.5196 35 52.2652 35 52C35 51.7348 35.1054 51.4804 35.2929 51.2929C35.4804 51.1054 35.7348 51 36 51Z" fill="#8C30F5"/>
<path d="M46 41H43V63H46C46.2652 63 46.5196 62.8946 46.7071 62.7071C46.8946 62.5196 47 62.2652 47 62V42C47 41.7348 46.8946 41.4804 46.7071 41.2929C46.5196 41.1054 46.2652 41 46 41Z" fill="#2EC5CE"/>
<path d="M88 72.2431C88 72.2431 136.764 79.8916 172.025 73.6741C207.286 67.4565 250.493 48.5912 250.493 48.5912" stroke="#D9DBE1" stroke-width="2" stroke-linecap="round" stroke-dasharray="2 6"/>
</g>
<path d="M1.26 125V112.04H5.391C5.499 112.04 5.712 112.043 6.03 112.049C6.354 112.055 6.666 112.076 6.966 112.112C7.992 112.244 8.859 112.61 9.567 113.21C10.281 113.804 10.821 114.563 11.187 115.487C11.553 116.411 11.736 117.422 11.736 118.52C11.736 119.618 11.553 120.629 11.187 121.553C10.821 122.477 10.281 123.239 9.567 123.839C8.859 124.433 7.992 124.796 6.966 124.928C6.672 124.964 6.363 124.985 6.039 124.991C5.715 124.997 5.499 125 5.391 125H1.26ZM3.465 122.957H5.391C5.571 122.957 5.799 122.951 6.075 122.939C6.357 122.927 6.606 122.9 6.822 122.858C7.434 122.744 7.932 122.471 8.316 122.039C8.7 121.607 8.982 121.082 9.162 120.464C9.348 119.846 9.441 119.198 9.441 118.52C9.441 117.818 9.348 117.158 9.162 116.54C8.976 115.922 8.688 115.403 8.298 114.983C7.914 114.563 7.422 114.296 6.822 114.182C6.606 114.134 6.357 114.107 6.075 114.101C5.799 114.089 5.571 114.083 5.391 114.083H3.465V122.957ZM18.2825 125.27C17.2985 125.27 16.4345 125.057 15.6905 124.631C14.9465 124.205 14.3645 123.614 13.9445 122.858C13.5305 122.102 13.3235 121.232 13.3235 120.248C13.3235 119.186 13.5275 118.265 13.9355 117.485C14.3435 116.699 14.9105 116.09 15.6365 115.658C16.3625 115.226 17.2025 115.01 18.1565 115.01C19.1645 115.01 20.0195 115.247 20.7215 115.721C21.4295 116.189 21.9545 116.852 22.2965 117.71C22.6385 118.568 22.7675 119.579 22.6835 120.743H20.5325V119.951C20.5265 118.895 20.3405 118.124 19.9745 117.638C19.6085 117.152 19.0325 116.909 18.2465 116.909C17.3585 116.909 16.6985 117.185 16.2665 117.737C15.8345 118.283 15.6185 119.084 15.6185 120.14C15.6185 121.124 15.8345 121.886 16.2665 122.426C16.6985 122.966 17.3285 123.236 18.1565 123.236C18.6905 123.236 19.1495 123.119 19.5335 122.885C19.9235 122.645 20.2235 122.3 20.4335 121.85L22.5755 122.498C22.2035 123.374 21.6275 124.055 20.8475 124.541C20.0735 125.027 19.2185 125.27 18.2825 125.27ZM14.9345 120.743V119.105H21.6215V120.743H14.9345ZM26.9681 125L23.4401 115.28H25.6091L28.0571 122.327L30.4961 115.28H32.6741L29.1461 125H26.9681ZM38.3567 125.27C37.3727 125.27 36.5087 125.057 35.7647 124.631C35.0207 124.205 34.4387 123.614 34.0187 122.858C33.6047 122.102 33.3977 121.232 33.3977 120.248C33.3977 119.186 33.6017 118.265 34.0097 117.485C34.4177 116.699 34.9847 116.09 35.7107 115.658C36.4367 115.226 37.2767 115.01 38.2307 115.01C39.2387 115.01 40.0937 115.247 40.7957 115.721C41.5037 116.189 42.0287 116.852 42.3707 117.71C42.7127 118.568 42.8417 119.579 42.7577 120.743H40.6067V119.951C40.6007 118.895 40.4147 118.124 40.0487 117.638C39.6827 117.152 39.1067 116.909 38.3207 116.909C37.4327 116.909 36.7727 117.185 36.3407 117.737C35.9087 118.283 35.6927 119.084 35.6927 120.14C35.6927 121.124 35.9087 121.886 36.3407 122.426C36.7727 122.966 37.4027 123.236 38.2307 123.236C38.7647 123.236 39.2237 123.119 39.6077 122.885C39.9977 122.645 40.2977 122.3 40.5077 121.85L42.6497 122.498C42.2777 123.374 41.7017 124.055 40.9217 124.541C40.1477 125.027 39.2927 125.27 38.3567 125.27ZM35.0087 120.743V119.105H41.6957V120.743H35.0087ZM44.9459 125V111.77H47.1149V125H44.9459ZM54.1038 125.27C53.1318 125.27 52.2828 125.051 51.5568 124.613C50.8308 124.175 50.2668 123.572 49.8648 122.804C49.4688 122.03 49.2708 121.142 49.2708 120.14C49.2708 119.12 49.4748 118.226 49.8828 117.458C50.2908 116.69 50.8578 116.09 51.5838 115.658C52.3098 115.226 53.1498 115.01 54.1038 115.01C55.0818 115.01 55.9338 115.229 56.6598 115.667C57.3858 116.105 57.9498 116.711 58.3518 117.485C58.7538 118.253 58.9548 119.138 58.9548 120.14C58.9548 121.148 58.7508 122.039 58.3428 122.813C57.9408 123.581 57.3768 124.184 56.6508 124.622C55.9248 125.054 55.0758 125.27 54.1038 125.27ZM54.1038 123.236C54.9678 123.236 55.6098 122.948 56.0298 122.372C56.4498 121.796 56.6598 121.052 56.6598 120.14C56.6598 119.198 56.4468 118.448 56.0208 117.89C55.5948 117.326 54.9558 117.044 54.1038 117.044C53.5218 117.044 53.0418 117.176 52.6638 117.44C52.2918 117.698 52.0158 118.061 51.8358 118.529C51.6558 118.991 51.5658 119.528 51.5658 120.14C51.5658 121.082 51.7788 121.835 52.2048 122.399C52.6368 122.957 53.2698 123.236 54.1038 123.236ZM65.6087 125.27C64.6607 125.27 63.8657 125.045 63.2237 124.595C62.5817 124.145 62.0987 123.533 61.7747 122.759C61.4507 121.979 61.2887 121.106 61.2887 120.14C61.2887 119.162 61.4507 118.286 61.7747 117.512C62.0987 116.738 62.5727 116.129 63.1967 115.685C63.8267 115.235 64.6037 115.01 65.5277 115.01C66.4457 115.01 67.2407 115.235 67.9127 115.685C68.5907 116.129 69.1157 116.738 69.4877 117.512C69.8597 118.28 70.0457 119.156 70.0457 120.14C70.0457 121.112 69.8627 121.985 69.4967 122.759C69.1307 123.533 68.6147 124.145 67.9487 124.595C67.2827 125.045 66.5027 125.27 65.6087 125.27ZM60.9197 129.32V115.28H62.8367V122.102H63.1067V129.32H60.9197ZM65.2757 123.326C65.8397 123.326 66.3047 123.185 66.6707 122.903C67.0367 122.621 67.3067 122.24 67.4807 121.76C67.6607 121.274 67.7507 120.734 67.7507 120.14C67.7507 119.552 67.6607 119.018 67.4807 118.538C67.3007 118.052 67.0217 117.668 66.6437 117.386C66.2657 117.098 65.7857 116.954 65.2037 116.954C64.6517 116.954 64.2017 117.089 63.8537 117.359C63.5057 117.623 63.2477 117.995 63.0797 118.475C62.9177 118.949 62.8367 119.504 62.8367 120.14C62.8367 120.77 62.9177 121.325 63.0797 121.805C63.2477 122.285 63.5087 122.66 63.8627 122.93C64.2227 123.194 64.6937 123.326 65.2757 123.326Z" fill="black"/>
<path d="M5.784 155.24C4.63733 155.24 3.66933 154.987 2.88 154.48C2.09067 153.968 1.49333 153.261 1.088 152.36C0.682667 151.459 0.48 150.419 0.48 149.24C0.48 148.061 0.682667 147.021 1.088 146.12C1.49333 145.219 2.09067 144.515 2.88 144.008C3.66933 143.496 4.63733 143.24 5.784 143.24C7.12267 143.24 8.216 143.584 9.064 144.272C9.912 144.955 10.4933 145.872 10.808 147.024L9.608 147.336C9.36267 146.424 8.92267 145.701 8.288 145.168C7.65333 144.635 6.81867 144.368 5.784 144.368C4.88267 144.368 4.13333 144.573 3.536 144.984C2.93867 145.395 2.488 145.968 2.184 146.704C1.88533 147.435 1.73067 148.28 1.72 149.24C1.71467 150.2 1.86133 151.045 2.16 151.776C2.464 152.507 2.91733 153.08 3.52 153.496C4.128 153.907 4.88267 154.112 5.784 154.112C6.81867 154.112 7.65333 153.845 8.288 153.312C8.92267 152.773 9.36267 152.051 9.608 151.144L10.808 151.456C10.4933 152.608 9.912 153.528 9.064 154.216C8.216 154.899 7.12267 155.24 5.784 155.24ZM16.1811 155.24C15.3225 155.24 14.5891 155.045 13.9811 154.656C13.3731 154.267 12.9065 153.728 12.5811 153.04C12.2558 152.352 12.0931 151.563 12.0931 150.672C12.0931 149.765 12.2585 148.971 12.5891 148.288C12.9198 147.605 13.3891 147.075 13.9971 146.696C14.6105 146.312 15.3385 146.12 16.1811 146.12C17.0451 146.12 17.7811 146.315 18.3891 146.704C19.0025 147.088 19.4691 147.624 19.7891 148.312C20.1145 148.995 20.2771 149.781 20.2771 150.672C20.2771 151.579 20.1145 152.376 19.7891 153.064C19.4638 153.747 18.9945 154.28 18.3811 154.664C17.7678 155.048 17.0345 155.24 16.1811 155.24ZM16.1811 154.112C17.1411 154.112 17.8558 153.795 18.3251 153.16C18.7945 152.52 19.0291 151.691 19.0291 150.672C19.0291 149.627 18.7918 148.795 18.3171 148.176C17.8478 147.557 17.1358 147.248 16.1811 147.248C15.5358 147.248 15.0025 147.395 14.5811 147.688C14.1651 147.976 13.8531 148.379 13.6451 148.896C13.4425 149.408 13.3411 150 13.3411 150.672C13.3411 151.712 13.5811 152.547 14.0611 153.176C14.5411 153.8 15.2478 154.112 16.1811 154.112ZM28.2819 155V150.592C28.2819 150.112 28.2365 149.672 28.1459 149.272C28.0552 148.867 27.9085 148.515 27.7059 148.216C27.5085 147.912 27.2499 147.677 26.9299 147.512C26.6152 147.347 26.2312 147.264 25.7779 147.264C25.3619 147.264 24.9939 147.336 24.6739 147.48C24.3592 147.624 24.0925 147.832 23.8739 148.104C23.6605 148.371 23.4979 148.696 23.3859 149.08C23.2739 149.464 23.2179 149.901 23.2179 150.392L22.3859 150.208C22.3859 149.323 22.5405 148.579 22.8499 147.976C23.1592 147.373 23.5859 146.917 24.1299 146.608C24.6739 146.299 25.2979 146.144 26.0019 146.144C26.5192 146.144 26.9699 146.224 27.3539 146.384C27.7432 146.544 28.0712 146.76 28.3379 147.032C28.6099 147.304 28.8285 147.616 28.9939 147.968C29.1592 148.315 29.2792 148.685 29.3539 149.08C29.4285 149.469 29.4659 149.859 29.4659 150.248V155H28.2819ZM22.0339 155V146.36H23.0979V148.488H23.2179V155H22.0339ZM33.8779 155L30.7419 146.36H31.9339L34.4859 153.464L37.0219 146.36H38.2299L35.0939 155H33.8779ZM43.0104 155.24C42.1677 155.24 41.437 155.053 40.8184 154.68C40.205 154.307 39.7277 153.781 39.3864 153.104C39.045 152.427 38.8744 151.632 38.8744 150.72C38.8744 149.776 39.0424 148.96 39.3784 148.272C39.7144 147.584 40.1864 147.053 40.7944 146.68C41.4077 146.307 42.1304 146.12 42.9624 146.12C43.8157 146.12 44.5437 146.317 45.1464 146.712C45.749 147.101 46.205 147.661 46.5144 148.392C46.8237 149.123 46.965 149.995 46.9384 151.008H45.7384V150.592C45.717 149.472 45.4744 148.627 45.0104 148.056C44.5517 147.485 43.8797 147.2 42.9944 147.2C42.0664 147.2 41.3544 147.501 40.8584 148.104C40.3677 148.707 40.1224 149.565 40.1224 150.68C40.1224 151.768 40.3677 152.613 40.8584 153.216C41.3544 153.813 42.0557 154.112 42.9624 154.112C43.581 154.112 44.1197 153.971 44.5784 153.688C45.0424 153.4 45.4077 152.987 45.6744 152.448L46.7704 152.872C46.429 153.624 45.925 154.208 45.2584 154.624C44.597 155.035 43.8477 155.24 43.0104 155.24ZM39.7064 151.008V150.024H46.3064V151.008H39.7064ZM48.7138 155V146.36H49.7698V148.44L49.5618 148.168C49.6578 147.912 49.7831 147.677 49.9378 147.464C50.0924 147.245 50.2604 147.067 50.4418 146.928C50.6658 146.731 50.9271 146.581 51.2258 146.48C51.5244 146.373 51.8258 146.312 52.1298 146.296C52.4338 146.275 52.7111 146.296 52.9618 146.36V147.464C52.6471 147.384 52.3031 147.365 51.9298 147.408C51.5564 147.451 51.2124 147.6 50.8978 147.856C50.6098 148.08 50.3938 148.349 50.2498 148.664C50.1058 148.973 50.0098 149.304 49.9618 149.656C49.9138 150.003 49.8898 150.347 49.8898 150.688V155H48.7138ZM59.1834 155C58.698 155.101 58.218 155.141 57.7434 155.12C57.274 155.099 56.8527 154.997 56.4794 154.816C56.1114 154.635 55.8314 154.352 55.6394 153.968C55.4847 153.648 55.3994 153.325 55.3834 153C55.3727 152.669 55.3674 152.293 55.3674 151.872V143.96H56.5354V151.824C56.5354 152.187 56.538 152.491 56.5434 152.736C56.554 152.976 56.61 153.189 56.7114 153.376C56.9034 153.733 57.2074 153.947 57.6234 154.016C58.0447 154.085 58.5647 154.069 59.1834 153.968V155ZM53.5194 147.368V146.36H59.1834V147.368H53.5194ZM68.7928 155C68.3074 155.101 67.8274 155.141 67.3528 155.12C66.8834 155.099 66.4621 154.997 66.0888 154.816C65.7208 154.635 65.4408 154.352 65.2488 153.968C65.0941 153.648 65.0088 153.325 64.9928 153C64.9821 152.669 64.9768 152.293 64.9768 151.872V143.96H66.1448V151.824C66.1448 152.187 66.1474 152.491 66.1528 152.736C66.1634 152.976 66.2194 153.189 66.3208 153.376C66.5128 153.733 66.8168 153.947 67.2328 154.016C67.6541 154.085 68.1741 154.069 68.7928 153.968V155ZM63.1288 147.368V146.36H68.7928V147.368H63.1288ZM76.735 155V150.592C76.735 150.112 76.6897 149.672 76.599 149.272C76.5083 148.867 76.3617 148.515 76.159 148.216C75.9617 147.912 75.703 147.677 75.383 147.512C75.0683 147.347 74.6843 147.264 74.231 147.264C73.815 147.264 73.447 147.336 73.127 147.48C72.8123 147.624 72.5457 147.832 72.327 148.104C72.1137 148.371 71.951 148.696 71.839 149.08C71.727 149.464 71.671 149.901 71.671 150.392L70.839 150.208C70.839 149.323 70.9937 148.579 71.303 147.976C71.6123 147.373 72.039 146.917 72.583 146.608C73.127 146.299 73.751 146.144 74.455 146.144C74.9723 146.144 75.423 146.224 75.807 146.384C76.1963 146.544 76.5243 146.76 76.791 147.032C77.063 147.304 77.2817 147.616 77.447 147.968C77.6123 148.315 77.7323 148.685 77.807 149.08C77.8817 149.469 77.919 149.859 77.919 150.248V155H76.735ZM70.487 155V143.48H71.551V149.984H71.671V155H70.487ZM83.651 155.24C82.8083 155.24 82.0777 155.053 81.459 154.68C80.8457 154.307 80.3683 153.781 80.027 153.104C79.6857 152.427 79.515 151.632 79.515 150.72C79.515 149.776 79.683 148.96 80.019 148.272C80.355 147.584 80.827 147.053 81.435 146.68C82.0483 146.307 82.771 146.12 83.603 146.12C84.4563 146.12 85.1843 146.317 85.787 146.712C86.3897 147.101 86.8457 147.661 87.155 148.392C87.4643 149.123 87.6057 149.995 87.579 151.008H86.379V150.592C86.3577 149.472 86.115 148.627 85.651 148.056C85.1923 147.485 84.5203 147.2 83.635 147.2C82.707 147.2 81.995 147.501 81.499 148.104C81.0083 148.707 80.763 149.565 80.763 150.68C80.763 151.768 81.0083 152.613 81.499 153.216C81.995 153.813 82.6963 154.112 83.603 154.112C84.2217 154.112 84.7603 153.971 85.219 153.688C85.683 153.4 86.0483 152.987 86.315 152.448L87.411 152.872C87.0697 153.624 86.5657 154.208 85.899 154.624C85.2377 155.035 84.4883 155.24 83.651 155.24ZM80.347 151.008V150.024H86.947V151.008H80.347ZM95.9095 155.24C95.1042 155.24 94.4162 155.04 93.8455 154.64C93.2748 154.235 92.8375 153.688 92.5335 153C92.2295 152.312 92.0775 151.536 92.0775 150.672C92.0775 149.813 92.2268 149.04 92.5255 148.352C92.8295 147.664 93.2642 147.12 93.8295 146.72C94.3948 146.32 95.0722 146.12 95.8615 146.12C96.6722 146.12 97.3548 146.317 97.9095 146.712C98.4642 147.107 98.8828 147.648 99.1655 148.336C99.4535 149.019 99.5975 149.797 99.5975 150.672C99.5975 151.531 99.4562 152.307 99.1735 153C98.8908 153.688 98.4748 154.235 97.9255 154.64C97.3762 155.04 96.7042 155.24 95.9095 155.24ZM96.0295 154.144C96.6428 154.144 97.1495 153.995 97.5495 153.696C97.9495 153.397 98.2482 152.987 98.4455 152.464C98.6428 151.936 98.7415 151.339 98.7415 150.672C98.7415 149.995 98.6428 149.397 98.4455 148.88C98.2482 148.357 97.9495 147.949 97.5495 147.656C97.1548 147.363 96.6562 147.216 96.0535 147.216C95.4348 147.216 94.9228 147.368 94.5175 147.672C94.1122 147.976 93.8108 148.389 93.6135 148.912C93.4215 149.435 93.3255 150.021 93.3255 150.672C93.3255 151.328 93.4242 151.92 93.6215 152.448C93.8242 152.971 94.1255 153.384 94.5255 153.688C94.9255 153.992 95.4268 154.144 96.0295 154.144ZM98.7415 155V148.496H98.6135V143.48H99.7975V155H98.7415ZM105.698 155.24C104.855 155.24 104.125 155.053 103.506 154.68C102.893 154.307 102.415 153.781 102.074 153.104C101.733 152.427 101.562 151.632 101.562 150.72C101.562 149.776 101.73 148.96 102.066 148.272C102.402 147.584 102.874 147.053 103.482 146.68C104.095 146.307 104.818 146.12 105.65 146.12C106.503 146.12 107.231 146.317 107.834 146.712C108.437 147.101 108.893 147.661 109.202 148.392C109.511 149.123 109.653 149.995 109.626 151.008H108.426V150.592C108.405 149.472 108.162 148.627 107.698 148.056C107.239 147.485 106.567 147.2 105.682 147.2C104.754 147.2 104.042 147.501 103.546 148.104C103.055 148.707 102.81 149.565 102.81 150.68C102.81 151.768 103.055 152.613 103.546 153.216C104.042 153.813 104.743 154.112 105.65 154.112C106.269 154.112 106.807 153.971 107.266 153.688C107.73 153.4 108.095 152.987 108.362 152.448L109.458 152.872C109.117 153.624 108.613 154.208 107.946 154.624C107.285 155.035 106.535 155.24 105.698 155.24ZM102.394 151.008V150.024H108.994V151.008H102.394ZM114.625 155.232C113.612 155.232 112.777 155.013 112.121 154.576C111.471 154.139 111.071 153.531 110.921 152.752L112.121 152.552C112.249 153.043 112.54 153.435 112.993 153.728C113.452 154.016 114.017 154.16 114.689 154.16C115.345 154.16 115.863 154.024 116.241 153.752C116.62 153.475 116.809 153.099 116.809 152.624C116.809 152.357 116.748 152.141 116.625 151.976C116.508 151.805 116.265 151.648 115.897 151.504C115.529 151.36 114.98 151.189 114.249 150.992C113.465 150.779 112.852 150.565 112.409 150.352C111.967 150.139 111.652 149.893 111.465 149.616C111.279 149.333 111.185 148.989 111.185 148.584C111.185 148.093 111.324 147.664 111.601 147.296C111.879 146.923 112.263 146.635 112.753 146.432C113.244 146.224 113.815 146.12 114.465 146.12C115.116 146.12 115.697 146.227 116.209 146.44C116.727 146.648 117.143 146.941 117.457 147.32C117.772 147.699 117.959 148.139 118.017 148.64L116.817 148.856C116.737 148.349 116.484 147.949 116.057 147.656C115.636 147.357 115.1 147.203 114.449 147.192C113.836 147.176 113.337 147.293 112.953 147.544C112.569 147.789 112.377 148.117 112.377 148.528C112.377 148.757 112.447 148.955 112.585 149.12C112.724 149.28 112.975 149.432 113.337 149.576C113.705 149.72 114.228 149.877 114.905 150.048C115.7 150.251 116.324 150.464 116.777 150.688C117.231 150.912 117.553 151.176 117.745 151.48C117.937 151.784 118.033 152.16 118.033 152.608C118.033 153.424 117.729 154.067 117.121 154.536C116.519 155 115.687 155.232 114.625 155.232ZM119.968 144.72V143.4H121.144V144.72H119.968ZM119.968 155V146.36H121.144V155H119.968ZM126.974 159.08C126.531 159.08 126.094 159.013 125.662 158.88C125.235 158.752 124.841 158.547 124.478 158.264C124.115 157.987 123.811 157.624 123.566 157.176L124.63 156.584C124.87 157.064 125.206 157.408 125.638 157.616C126.075 157.829 126.521 157.936 126.974 157.936C127.598 157.936 128.102 157.819 128.486 157.584C128.875 157.355 129.158 157.013 129.334 156.56C129.51 156.107 129.595 155.541 129.59 154.864V152.56H129.726V146.36H130.774V154.88C130.774 155.125 130.766 155.36 130.75 155.584C130.739 155.813 130.715 156.037 130.678 156.256C130.577 156.901 130.366 157.432 130.046 157.848C129.731 158.264 129.315 158.573 128.798 158.776C128.286 158.979 127.678 159.08 126.974 159.08ZM126.894 155.24C126.089 155.24 125.401 155.04 124.83 154.64C124.259 154.235 123.822 153.688 123.518 153C123.214 152.312 123.062 151.536 123.062 150.672C123.062 149.813 123.211 149.04 123.51 148.352C123.814 147.664 124.249 147.12 124.814 146.72C125.379 146.32 126.057 146.12 126.846 146.12C127.657 146.12 128.339 146.317 128.894 146.712C129.449 147.107 129.867 147.648 130.15 148.336C130.438 149.019 130.582 149.797 130.582 150.672C130.582 151.531 130.441 152.307 130.158 153C129.875 153.688 129.459 154.235 128.91 154.64C128.361 155.04 127.689 155.24 126.894 155.24ZM127.014 154.144C127.627 154.144 128.134 153.995 128.534 153.696C128.934 153.397 129.233 152.987 129.43 152.464C129.627 151.936 129.726 151.339 129.726 150.672C129.726 149.995 129.627 149.397 129.43 148.88C129.233 148.357 128.934 147.949 128.534 147.656C128.139 147.363 127.641 147.216 127.038 147.216C126.419 147.216 125.907 147.368 125.502 147.672C125.097 147.976 124.795 148.389 124.598 148.912C124.406 149.435 124.31 150.021 124.31 150.672C124.31 151.328 124.409 151.92 124.606 152.448C124.809 152.971 125.11 153.384 125.51 153.688C125.91 153.992 126.411 154.144 127.014 154.144ZM139.251 155V150.592C139.251 150.112 139.205 149.672 139.115 149.272C139.024 148.867 138.877 148.515 138.675 148.216C138.477 147.912 138.219 147.677 137.899 147.512C137.584 147.347 137.2 147.264 136.747 147.264C136.331 147.264 135.963 147.336 135.643 147.48C135.328 147.624 135.061 147.832 134.843 148.104C134.629 148.371 134.467 148.696 134.355 149.08C134.243 149.464 134.187 149.901 134.187 150.392L133.355 150.208C133.355 149.323 133.509 148.579 133.819 147.976C134.128 147.373 134.555 146.917 135.099 146.608C135.643 146.299 136.267 146.144 136.971 146.144C137.488 146.144 137.939 146.224 138.323 146.384C138.712 146.544 139.04 146.76 139.307 147.032C139.579 147.304 139.797 147.616 139.963 147.968C140.128 148.315 140.248 148.685 140.323 149.08C140.397 149.469 140.435 149.859 140.435 150.248V155H139.251ZM133.003 155V146.36H134.067V148.488H134.187V155H133.003ZM145.735 155.232C144.721 155.232 143.887 155.013 143.231 154.576C142.58 154.139 142.18 153.531 142.031 152.752L143.231 152.552C143.359 153.043 143.649 153.435 144.103 153.728C144.561 154.016 145.127 154.16 145.799 154.16C146.455 154.16 146.972 154.024 147.351 153.752C147.729 153.475 147.919 153.099 147.919 152.624C147.919 152.357 147.857 152.141 147.735 151.976C147.617 151.805 147.375 151.648 147.007 151.504C146.639 151.36 146.089 151.189 145.359 150.992C144.575 150.779 143.961 150.565 143.519 150.352C143.076 150.139 142.761 149.893 142.575 149.616C142.388 149.333 142.295 148.989 142.295 148.584C142.295 148.093 142.433 147.664 142.711 147.296C142.988 146.923 143.372 146.635 143.863 146.432C144.353 146.224 144.924 146.12 145.575 146.12C146.225 146.12 146.807 146.227 147.319 146.44C147.836 146.648 148.252 146.941 148.567 147.32C148.881 147.699 149.068 148.139 149.127 148.64L147.927 148.856C147.847 148.349 147.593 147.949 147.167 147.656C146.745 147.357 146.209 147.203 145.559 147.192C144.945 147.176 144.447 147.293 144.063 147.544C143.679 147.789 143.487 148.117 143.487 148.528C143.487 148.757 143.556 148.955 143.695 149.12C143.833 149.28 144.084 149.432 144.447 149.576C144.815 149.72 145.337 149.877 146.015 150.048C146.809 150.251 147.433 150.464 147.887 150.688C148.34 150.912 148.663 151.176 148.855 151.48C149.047 151.784 149.143 152.16 149.143 152.608C149.143 153.424 148.839 154.067 148.231 154.536C147.628 155 146.796 155.232 145.735 155.232ZM154.28 144.72V143.4H155.456V144.72H154.28ZM154.28 155V146.36H155.456V155H154.28ZM164.094 155V150.592C164.094 150.112 164.049 149.672 163.958 149.272C163.868 148.867 163.721 148.515 163.518 148.216C163.321 147.912 163.062 147.677 162.742 147.512C162.428 147.347 162.044 147.264 161.59 147.264C161.174 147.264 160.806 147.336 160.486 147.48C160.172 147.624 159.905 147.832 159.686 148.104C159.473 148.371 159.31 148.696 159.198 149.08C159.086 149.464 159.03 149.901 159.03 150.392L158.198 150.208C158.198 149.323 158.353 148.579 158.662 147.976C158.972 147.373 159.398 146.917 159.942 146.608C160.486 146.299 161.11 146.144 161.814 146.144C162.332 146.144 162.782 146.224 163.166 146.384C163.556 146.544 163.884 146.76 164.15 147.032C164.422 147.304 164.641 147.616 164.806 147.968C164.972 148.315 165.092 148.685 165.166 149.08C165.241 149.469 165.278 149.859 165.278 150.248V155H164.094ZM157.846 155V146.36H158.91V148.488H159.03V155H157.846ZM172.058 155C171.573 155.101 171.093 155.141 170.618 155.12C170.149 155.099 169.728 154.997 169.354 154.816C168.986 154.635 168.706 154.352 168.514 153.968C168.36 153.648 168.274 153.325 168.258 153C168.248 152.669 168.242 152.293 168.242 151.872V143.96H169.41V151.824C169.41 152.187 169.413 152.491 169.418 152.736C169.429 152.976 169.485 153.189 169.586 153.376C169.778 153.733 170.082 153.947 170.498 154.016C170.92 154.085 171.44 154.069 172.058 153.968V155ZM166.394 147.368V146.36H172.058V147.368H166.394ZM177.056 155.24C176.197 155.24 175.464 155.045 174.856 154.656C174.248 154.267 173.781 153.728 173.456 153.04C173.131 152.352 172.968 151.563 172.968 150.672C172.968 149.765 173.133 148.971 173.464 148.288C173.795 147.605 174.264 147.075 174.872 146.696C175.485 146.312 176.213 146.12 177.056 146.12C177.92 146.12 178.656 146.315 179.264 146.704C179.877 147.088 180.344 147.624 180.664 148.312C180.989 148.995 181.152 149.781 181.152 150.672C181.152 151.579 180.989 152.376 180.664 153.064C180.339 153.747 179.869 154.28 179.256 154.664C178.643 155.048 177.909 155.24 177.056 155.24ZM177.056 154.112C178.016 154.112 178.731 153.795 179.2 153.16C179.669 152.52 179.904 151.691 179.904 150.672C179.904 149.627 179.667 148.795 179.192 148.176C178.723 147.557 178.011 147.248 177.056 147.248C176.411 147.248 175.877 147.395 175.456 147.688C175.04 147.976 174.728 148.379 174.52 148.896C174.317 149.408 174.216 150 174.216 150.672C174.216 151.712 174.456 152.547 174.936 153.176C175.416 153.8 176.123 154.112 177.056 154.112ZM188.592 155.24C187.941 155.24 187.395 155.123 186.952 154.888C186.515 154.653 186.187 154.341 185.968 153.952C185.749 153.563 185.64 153.139 185.64 152.68C185.64 152.211 185.733 151.811 185.92 151.48C186.112 151.144 186.371 150.869 186.696 150.656C187.027 150.443 187.408 150.28 187.84 150.168C188.277 150.061 188.76 149.968 189.288 149.888C189.821 149.803 190.341 149.731 190.848 149.672C191.36 149.608 191.808 149.547 192.192 149.488L191.776 149.744C191.792 148.891 191.627 148.259 191.28 147.848C190.933 147.437 190.331 147.232 189.472 147.232C188.88 147.232 188.379 147.365 187.968 147.632C187.563 147.899 187.277 148.32 187.112 148.896L185.968 148.56C186.165 147.787 186.563 147.187 187.16 146.76C187.757 146.333 188.533 146.12 189.488 146.12C190.277 146.12 190.947 146.269 191.496 146.568C192.051 146.861 192.443 147.288 192.672 147.848C192.779 148.099 192.848 148.379 192.88 148.688C192.912 148.997 192.928 149.312 192.928 149.632V155H191.88V152.832L192.184 152.96C191.891 153.701 191.435 154.267 190.816 154.656C190.197 155.045 189.456 155.24 188.592 155.24ZM188.728 154.224C189.277 154.224 189.757 154.125 190.168 153.928C190.579 153.731 190.909 153.461 191.16 153.12C191.411 152.773 191.573 152.384 191.648 151.952C191.712 151.675 191.747 151.371 191.752 151.04C191.757 150.704 191.76 150.453 191.76 150.288L192.208 150.52C191.808 150.573 191.373 150.627 190.904 150.68C190.44 150.733 189.981 150.795 189.528 150.864C189.08 150.933 188.675 151.016 188.312 151.112C188.067 151.181 187.829 151.28 187.6 151.408C187.371 151.531 187.181 151.696 187.032 151.904C186.888 152.112 186.816 152.371 186.816 152.68C186.816 152.931 186.877 153.173 187 153.408C187.128 153.643 187.331 153.837 187.608 153.992C187.891 154.147 188.264 154.224 188.728 154.224ZM198.374 155V143.24H199.55V155H198.374ZM202.108 144.72V143.4H203.284V144.72H202.108ZM202.108 155V146.36H203.284V155H202.108ZM208.019 155L204.883 146.36H206.075L208.627 153.464L211.163 146.36H212.371L209.235 155H208.019ZM217.151 155.24C216.308 155.24 215.578 155.053 214.959 154.68C214.346 154.307 213.868 153.781 213.527 153.104C213.186 152.427 213.015 151.632 213.015 150.72C213.015 149.776 213.183 148.96 213.519 148.272C213.855 147.584 214.327 147.053 214.935 146.68C215.548 146.307 216.271 146.12 217.103 146.12C217.956 146.12 218.684 146.317 219.287 146.712C219.89 147.101 220.346 147.661 220.655 148.392C220.964 149.123 221.106 149.995 221.079 151.008H219.879V150.592C219.858 149.472 219.615 148.627 219.151 148.056C218.692 147.485 218.02 147.2 217.135 147.2C216.207 147.2 215.495 147.501 214.999 148.104C214.508 148.707 214.263 149.565 214.263 150.68C214.263 151.768 214.508 152.613 214.999 153.216C215.495 153.813 216.196 154.112 217.103 154.112C217.722 154.112 218.26 153.971 218.719 153.688C219.183 153.4 219.548 152.987 219.815 152.448L220.911 152.872C220.57 153.624 220.066 154.208 219.399 154.624C218.738 155.035 217.988 155.24 217.151 155.24ZM213.847 151.008V150.024H220.447V151.008H213.847ZM3.592 181.24C2.94133 181.24 2.39467 181.123 1.952 180.888C1.51467 180.653 1.18667 180.341 0.968 179.952C0.749333 179.563 0.64 179.139 0.64 178.68C0.64 178.211 0.733333 177.811 0.92 177.48C1.112 177.144 1.37067 176.869 1.696 176.656C2.02667 176.443 2.408 176.28 2.84 176.168C3.27733 176.061 3.76 175.968 4.288 175.888C4.82133 175.803 5.34133 175.731 5.848 175.672C6.36 175.608 6.808 175.547 7.192 175.488L6.776 175.744C6.792 174.891 6.62667 174.259 6.28 173.848C5.93333 173.437 5.33067 173.232 4.472 173.232C3.88 173.232 3.37867 173.365 2.968 173.632C2.56267 173.899 2.27733 174.32 2.112 174.896L0.968 174.56C1.16533 173.787 1.56267 173.187 2.16 172.76C2.75733 172.333 3.53333 172.12 4.488 172.12C5.27733 172.12 5.94667 172.269 6.496 172.568C7.05067 172.861 7.44267 173.288 7.672 173.848C7.77867 174.099 7.848 174.379 7.88 174.688C7.912 174.997 7.928 175.312 7.928 175.632V181H6.88V178.832L7.184 178.96C6.89067 179.701 6.43467 180.267 5.816 180.656C5.19733 181.045 4.456 181.24 3.592 181.24ZM3.728 180.224C4.27733 180.224 4.75733 180.125 5.168 179.928C5.57867 179.731 5.90933 179.461 6.16 179.12C6.41067 178.773 6.57333 178.384 6.648 177.952C6.712 177.675 6.74667 177.371 6.752 177.04C6.75733 176.704 6.76 176.453 6.76 176.288L7.208 176.52C6.808 176.573 6.37333 176.627 5.904 176.68C5.44 176.733 4.98133 176.795 4.528 176.864C4.08 176.933 3.67467 177.016 3.312 177.112C3.06667 177.181 2.82933 177.28 2.6 177.408C2.37067 177.531 2.18133 177.696 2.032 177.904C1.888 178.112 1.816 178.371 1.816 178.68C1.816 178.931 1.87733 179.173 2 179.408C2.128 179.643 2.33067 179.837 2.608 179.992C2.89067 180.147 3.264 180.224 3.728 180.224ZM13.8906 181.24C13.096 181.24 12.424 181.04 11.8746 180.64C11.3253 180.235 10.9093 179.688 10.6266 179C10.344 178.307 10.2026 177.531 10.2026 176.672C10.2026 175.797 10.344 175.019 10.6266 174.336C10.9146 173.648 11.336 173.107 11.8906 172.712C12.4453 172.317 13.128 172.12 13.9386 172.12C14.728 172.12 15.4053 172.32 15.9706 172.72C16.536 173.12 16.968 173.664 17.2666 174.352C17.5706 175.04 17.7226 175.813 17.7226 176.672C17.7226 177.536 17.5706 178.312 17.2666 179C16.9626 179.688 16.5253 180.235 15.9546 180.64C15.384 181.04 14.696 181.24 13.8906 181.24ZM10.0026 184.84V172.36H11.0586V178.864H11.1866V184.84H10.0026ZM13.7706 180.144C14.3733 180.144 14.8746 179.992 15.2746 179.688C15.6746 179.384 15.9733 178.971 16.1706 178.448C16.3733 177.92 16.4746 177.328 16.4746 176.672C16.4746 176.021 16.376 175.435 16.1786 174.912C15.9813 174.389 15.68 173.976 15.2746 173.672C14.8746 173.368 14.3653 173.216 13.7466 173.216C13.144 173.216 12.6426 173.363 12.2426 173.656C11.848 173.949 11.552 174.357 11.3546 174.88C11.1573 175.397 11.0586 175.995 11.0586 176.672C11.0586 177.339 11.1573 177.936 11.3546 178.464C11.552 178.987 11.8506 179.397 12.2506 179.696C12.6506 179.995 13.1573 180.144 13.7706 180.144ZM23.3594 181.24C22.5647 181.24 21.8927 181.04 21.3434 180.64C20.794 180.235 20.378 179.688 20.0954 179C19.8127 178.307 19.6714 177.531 19.6714 176.672C19.6714 175.797 19.8127 175.019 20.0954 174.336C20.3834 173.648 20.8047 173.107 21.3594 172.712C21.914 172.317 22.5967 172.12 23.4074 172.12C24.1967 172.12 24.874 172.32 25.4394 172.72C26.0047 173.12 26.4367 173.664 26.7354 174.352C27.0394 175.04 27.1914 175.813 27.1914 176.672C27.1914 177.536 27.0394 178.312 26.7354 179C26.4314 179.688 25.994 180.235 25.4234 180.64C24.8527 181.04 24.1647 181.24 23.3594 181.24ZM19.4714 184.84V172.36H20.5274V178.864H20.6554V184.84H19.4714ZM23.2394 180.144C23.842 180.144 24.3434 179.992 24.7434 179.688C25.1434 179.384 25.442 178.971 25.6394 178.448C25.842 177.92 25.9434 177.328 25.9434 176.672C25.9434 176.021 25.8447 175.435 25.6474 174.912C25.45 174.389 25.1487 173.976 24.7434 173.672C24.3434 173.368 23.834 173.216 23.2154 173.216C22.6127 173.216 22.1114 173.363 21.7114 173.656C21.3167 173.949 21.0207 174.357 20.8234 174.88C20.626 175.397 20.5274 175.995 20.5274 176.672C20.5274 177.339 20.626 177.936 20.8234 178.464C21.0207 178.987 21.3194 179.397 21.7194 179.696C22.1194 179.995 22.626 180.144 23.2394 180.144ZM29.1081 181V169.24H30.2841V181H29.1081ZM32.8425 170.72V169.4H34.0185V170.72H32.8425ZM32.8425 181V172.36H34.0185V181H32.8425ZM40.0009 181.24C39.1315 181.24 38.3955 181.045 37.7929 180.656C37.1902 180.267 36.7315 179.731 36.4169 179.048C36.1075 178.36 35.9475 177.571 35.9369 176.68C35.9475 175.773 36.1129 174.979 36.4329 174.296C36.7529 173.608 37.2142 173.075 37.8169 172.696C38.4195 172.312 39.1502 172.12 40.0089 172.12C40.8835 172.12 41.6435 172.333 42.2889 172.76C42.9395 173.187 43.3849 173.771 43.6249 174.512L42.4729 174.88C42.2702 174.363 41.9475 173.963 41.5049 173.68C41.0675 173.392 40.5662 173.248 40.0009 173.248C39.3662 173.248 38.8409 173.395 38.4249 173.688C38.0089 173.976 37.6995 174.379 37.4969 174.896C37.2942 175.413 37.1902 176.008 37.1849 176.68C37.1955 177.715 37.4355 178.547 37.9049 179.176C38.3742 179.8 39.0729 180.112 40.0009 180.112C40.5875 180.112 41.0862 179.979 41.4969 179.712C41.9129 179.44 42.2275 179.045 42.4409 178.528L43.6249 178.88C43.3049 179.648 42.8355 180.235 42.2169 180.64C41.5982 181.04 40.8595 181.24 40.0009 181.24ZM47.6858 181.24C47.0351 181.24 46.4884 181.123 46.0458 180.888C45.6084 180.653 45.2804 180.341 45.0618 179.952C44.8431 179.563 44.7338 179.139 44.7338 178.68C44.7338 178.211 44.8271 177.811 45.0138 177.48C45.2058 177.144 45.4644 176.869 45.7898 176.656C46.1204 176.443 46.5018 176.28 46.9338 176.168C47.3711 176.061 47.8538 175.968 48.3818 175.888C48.9151 175.803 49.4351 175.731 49.9418 175.672C50.4538 175.608 50.9018 175.547 51.2858 175.488L50.8698 175.744C50.8858 174.891 50.7204 174.259 50.3738 173.848C50.0271 173.437 49.4244 173.232 48.5658 173.232C47.9738 173.232 47.4724 173.365 47.0618 173.632C46.6564 173.899 46.3711 174.32 46.2057 174.896L45.0618 174.56C45.2591 173.787 45.6564 173.187 46.2538 172.76C46.8511 172.333 47.6271 172.12 48.5818 172.12C49.3711 172.12 50.0404 172.269 50.5898 172.568C51.1444 172.861 51.5364 173.288 51.7658 173.848C51.8724 174.099 51.9418 174.379 51.9738 174.688C52.0058 174.997 52.0218 175.312 52.0218 175.632V181H50.9738V178.832L51.2778 178.96C50.9844 179.701 50.5284 180.267 49.9098 180.656C49.2911 181.045 48.5498 181.24 47.6858 181.24ZM47.8218 180.224C48.3711 180.224 48.8511 180.125 49.2618 179.928C49.6724 179.731 50.0031 179.461 50.2538 179.12C50.5044 178.773 50.6671 178.384 50.7418 177.952C50.8058 177.675 50.8404 177.371 50.8458 177.04C50.8511 176.704 50.8538 176.453 50.8538 176.288L51.3018 176.52C50.9018 176.573 50.4671 176.627 49.9978 176.68C49.5338 176.733 49.0751 176.795 48.6218 176.864C48.1738 176.933 47.7684 177.016 47.4058 177.112C47.1604 177.181 46.9231 177.28 46.6938 177.408C46.4644 177.531 46.2751 177.696 46.1258 177.904C45.9818 178.112 45.9098 178.371 45.9098 178.68C45.9098 178.931 45.9711 179.173 46.0938 179.408C46.2218 179.643 46.4244 179.837 46.7018 179.992C46.9844 180.147 47.3578 180.224 47.8218 180.224ZM58.8084 181C58.323 181.101 57.843 181.141 57.3684 181.12C56.899 181.099 56.4777 180.997 56.1044 180.816C55.7364 180.635 55.4564 180.352 55.2644 179.968C55.1097 179.648 55.0244 179.325 55.0084 179C54.9977 178.669 54.9924 178.293 54.9924 177.872V169.96H56.1604V177.824C56.1604 178.187 56.163 178.491 56.1684 178.736C56.179 178.976 56.235 179.189 56.3364 179.376C56.5284 179.733 56.8324 179.947 57.2484 180.016C57.6697 180.085 58.1897 180.069 58.8084 179.968V181ZM53.1444 173.368V172.36H58.8084V173.368H53.1444ZM60.6706 170.72V169.4H61.8466V170.72H60.6706ZM60.6706 181V172.36H61.8466V181H60.6706ZM67.853 181.24C66.9943 181.24 66.261 181.045 65.653 180.656C65.045 180.267 64.5783 179.728 64.253 179.04C63.9277 178.352 63.765 177.563 63.765 176.672C63.765 175.765 63.9303 174.971 64.261 174.288C64.5917 173.605 65.061 173.075 65.669 172.696C66.2823 172.312 67.0103 172.12 67.853 172.12C68.717 172.12 69.453 172.315 70.061 172.704C70.6743 173.088 71.141 173.624 71.461 174.312C71.7863 174.995 71.949 175.781 71.949 176.672C71.949 177.579 71.7863 178.376 71.461 179.064C71.1357 179.747 70.6663 180.28 70.053 180.664C69.4397 181.048 68.7063 181.24 67.853 181.24ZM67.853 180.112C68.813 180.112 69.5277 179.795 69.997 179.16C70.4663 178.52 70.701 177.691 70.701 176.672C70.701 175.627 70.4637 174.795 69.989 174.176C69.5197 173.557 68.8077 173.248 67.853 173.248C67.2077 173.248 66.6743 173.395 66.253 173.688C65.837 173.976 65.525 174.379 65.317 174.896C65.1143 175.408 65.013 176 65.013 176.672C65.013 177.712 65.253 178.547 65.733 179.176C66.213 179.8 66.9197 180.112 67.853 180.112ZM79.9538 181V176.592C79.9538 176.112 79.9084 175.672 79.8178 175.272C79.7271 174.867 79.5804 174.515 79.3778 174.216C79.1804 173.912 78.9218 173.677 78.6018 173.512C78.2871 173.347 77.9031 173.264 77.4498 173.264C77.0338 173.264 76.6658 173.336 76.3458 173.48C76.0311 173.624 75.7644 173.832 75.5458 174.104C75.3324 174.371 75.1698 174.696 75.0578 175.08C74.9458 175.464 74.8898 175.901 74.8898 176.392L74.0578 176.208C74.0578 175.323 74.2124 174.579 74.5218 173.976C74.8311 173.373 75.2578 172.917 75.8018 172.608C76.3458 172.299 76.9698 172.144 77.6738 172.144C78.1911 172.144 78.6418 172.224 79.0258 172.384C79.4151 172.544 79.7431 172.76 80.0098 173.032C80.2818 173.304 80.5004 173.616 80.6658 173.968C80.8311 174.315 80.9511 174.685 81.0258 175.08C81.1004 175.469 81.1378 175.859 81.1378 176.248V181H79.9538ZM73.7058 181V172.36H74.7698V174.488H74.8898V181H73.7058Z" fill="black"/>
<defs>
<clipPath id="clip0">
<rect width="252.417" height="72" fill="white" transform="translate(0 16)"/>
</clipPath>
</defs>
</svg>
