<svg width="255" height="204" viewBox="0 0 255 204" fill="none" xmlns="http://www.w3.org/2000/svg">
<g clip-path="url(#clip0)">
<rect y="16" width="72" height="72" rx="36" fill="#FAFAFA"/>
<path d="M47 46V42C47 41.7348 46.8946 41.4804 46.7071 41.2929C46.5196 41.1054 46.2652 41 46 41H26C25.7348 41 25.4804 41.1054 25.2929 41.2929C25.1054 41.4804 25 41.7348 25 42V46H47Z" fill="#2EC5CE"/>
<path d="M25 48V62C25 62.2652 25.1054 62.5196 25.2929 62.7071C25.4804 62.8946 25.7348 63 26 63H31V48H25Z" fill="#D6B1FF"/>
<path d="M33 63H46C46.2652 63 46.5196 62.8946 46.7071 62.7071C46.8946 62.5196 47 62.2652 47 62V48H33V63Z" fill="#8C30F5"/>
<path d="M88 28.8474C88 28.8474 136.764 24.1989 172.025 30.4165C207.286 36.634 250.493 52.4994 250.493 52.4994" stroke="#D9DBE1" stroke-width="2" stroke-linecap="round" stroke-dasharray="2 6"/>
</g>
<path d="M1.26 125V112.04H5.391C5.499 112.04 5.712 112.043 6.03 112.049C6.354 112.055 6.666 112.076 6.966 112.112C7.992 112.244 8.859 112.61 9.567 113.21C10.281 113.804 10.821 114.563 11.187 115.487C11.553 116.411 11.736 117.422 11.736 118.52C11.736 119.618 11.553 120.629 11.187 121.553C10.821 122.477 10.281 123.239 9.567 123.839C8.859 124.433 7.992 124.796 6.966 124.928C6.672 124.964 6.363 124.985 6.039 124.991C5.715 124.997 5.499 125 5.391 125H1.26ZM3.465 122.957H5.391C5.571 122.957 5.799 122.951 6.075 122.939C6.357 122.927 6.606 122.9 6.822 122.858C7.434 122.744 7.932 122.471 8.316 122.039C8.7 121.607 8.982 121.082 9.162 120.464C9.348 119.846 9.441 119.198 9.441 118.52C9.441 117.818 9.348 117.158 9.162 116.54C8.976 115.922 8.688 115.403 8.298 114.983C7.914 114.563 7.422 114.296 6.822 114.182C6.606 114.134 6.357 114.107 6.075 114.101C5.799 114.089 5.571 114.083 5.391 114.083H3.465V122.957ZM18.2825 125.27C17.2985 125.27 16.4345 125.057 15.6905 124.631C14.9465 124.205 14.3645 123.614 13.9445 122.858C13.5305 122.102 13.3235 121.232 13.3235 120.248C13.3235 119.186 13.5275 118.265 13.9355 117.485C14.3435 116.699 14.9105 116.09 15.6365 115.658C16.3625 115.226 17.2025 115.01 18.1565 115.01C19.1645 115.01 20.0195 115.247 20.7215 115.721C21.4295 116.189 21.9545 116.852 22.2965 117.71C22.6385 118.568 22.7675 119.579 22.6835 120.743H20.5325V119.951C20.5265 118.895 20.3405 118.124 19.9745 117.638C19.6085 117.152 19.0325 116.909 18.2465 116.909C17.3585 116.909 16.6985 117.185 16.2665 117.737C15.8345 118.283 15.6185 119.084 15.6185 120.14C15.6185 121.124 15.8345 121.886 16.2665 122.426C16.6985 122.966 17.3285 123.236 18.1565 123.236C18.6905 123.236 19.1495 123.119 19.5335 122.885C19.9235 122.645 20.2235 122.3 20.4335 121.85L22.5755 122.498C22.2035 123.374 21.6275 124.055 20.8475 124.541C20.0735 125.027 19.2185 125.27 18.2825 125.27ZM14.9345 120.743V119.105H21.6215V120.743H14.9345ZM28.4446 125.27C27.2446 125.27 26.2696 125 25.5196 124.46C24.7696 123.92 24.3136 123.161 24.1516 122.183L26.3656 121.841C26.4796 122.321 26.7316 122.699 27.1216 122.975C27.5116 123.251 28.0036 123.389 28.5976 123.389C29.1196 123.389 29.5216 123.287 29.8036 123.083C30.0916 122.873 30.2356 122.588 30.2356 122.228C30.2356 122.006 30.1816 121.829 30.0736 121.697C29.9716 121.559 29.7436 121.427 29.3896 121.301C29.0356 121.175 28.4926 121.016 27.7606 120.824C26.9446 120.608 26.2966 120.377 25.8166 120.131C25.3366 119.879 24.9916 119.582 24.7816 119.24C24.5716 118.898 24.4666 118.484 24.4666 117.998C24.4666 117.392 24.6256 116.864 24.9436 116.414C25.2616 115.964 25.7056 115.619 26.2756 115.379C26.8456 115.133 27.5176 115.01 28.2916 115.01C29.0476 115.01 29.7166 115.127 30.2986 115.361C30.8866 115.595 31.3606 115.928 31.7206 116.36C32.0806 116.792 32.3026 117.299 32.3866 117.881L30.1726 118.277C30.1186 117.863 29.9296 117.536 29.6056 117.296C29.2876 117.056 28.8616 116.921 28.3276 116.891C27.8176 116.861 27.4066 116.939 27.0946 117.125C26.7826 117.305 26.6266 117.56 26.6266 117.89C26.6266 118.076 26.6896 118.235 26.8156 118.367C26.9416 118.499 27.1936 118.631 27.5716 118.763C27.9556 118.895 28.5256 119.057 29.2816 119.249C30.0556 119.447 30.6736 119.675 31.1356 119.933C31.6036 120.185 31.9396 120.488 32.1436 120.842C32.3536 121.196 32.4586 121.625 32.4586 122.129C32.4586 123.107 32.1016 123.875 31.3876 124.433C30.6796 124.991 29.6986 125.27 28.4446 125.27ZM34.6099 113.804V111.815H36.7789V113.804H34.6099ZM34.6099 125V115.28H36.7789V125H34.6099ZM43.5608 129.59C43.0208 129.59 42.5018 129.506 42.0038 129.338C41.5118 129.17 41.0678 128.927 40.6718 128.609C40.2758 128.297 39.9518 127.919 39.6998 127.475L41.6978 126.485C41.8838 126.839 42.1448 127.1 42.4808 127.268C42.8228 127.442 43.1858 127.529 43.5698 127.529C44.0198 127.529 44.4218 127.448 44.7758 127.286C45.1298 127.13 45.4028 126.896 45.5948 126.584C45.7928 126.278 45.8858 125.894 45.8738 125.432V122.669H46.1438V115.28H48.0428V125.468C48.0428 125.714 48.0308 125.948 48.0068 126.17C47.9888 126.398 47.9558 126.62 47.9078 126.836C47.7638 127.466 47.4878 127.982 47.0798 128.384C46.6718 128.792 46.1648 129.095 45.5588 129.293C44.9588 129.491 44.2928 129.59 43.5608 129.59ZM43.3718 125.27C42.4778 125.27 41.6978 125.045 41.0318 124.595C40.3658 124.145 39.8498 123.533 39.4838 122.759C39.1178 121.985 38.9348 121.112 38.9348 120.14C38.9348 119.156 39.1178 118.28 39.4838 117.512C39.8558 116.738 40.3808 116.129 41.0588 115.685C41.7368 115.235 42.5348 115.01 43.4528 115.01C44.3768 115.01 45.1508 115.235 45.7748 115.685C46.4048 116.129 46.8818 116.738 47.2058 117.512C47.5298 118.286 47.6918 119.162 47.6918 120.14C47.6918 121.106 47.5298 121.979 47.2058 122.759C46.8818 123.533 46.3988 124.145 45.7568 124.595C45.1148 125.045 44.3198 125.27 43.3718 125.27ZM43.7048 123.326C44.2868 123.326 44.7548 123.194 45.1088 122.93C45.4688 122.66 45.7298 122.285 45.8918 121.805C46.0598 121.325 46.1438 120.77 46.1438 120.14C46.1438 119.504 46.0598 118.949 45.8918 118.475C45.7298 117.995 45.4748 117.623 45.1268 117.359C44.7788 117.089 44.3288 116.954 43.7768 116.954C43.1948 116.954 42.7148 117.098 42.3368 117.386C41.9588 117.668 41.6798 118.052 41.4998 118.538C41.3198 119.018 41.2298 119.552 41.2298 120.14C41.2298 120.734 41.3168 121.274 41.4908 121.76C41.6708 122.24 41.9438 122.621 42.3098 122.903C42.6758 123.185 43.1408 123.326 43.7048 123.326ZM57.2896 125V120.32C57.2896 120.014 57.2686 119.675 57.2266 119.303C57.1846 118.931 57.0856 118.574 56.9296 118.232C56.7796 117.884 56.5516 117.599 56.2456 117.377C55.9456 117.155 55.5376 117.044 55.0216 117.044C54.7456 117.044 54.4726 117.089 54.2026 117.179C53.9326 117.269 53.6866 117.425 53.4646 117.647C53.2486 117.863 53.0746 118.163 52.9426 118.547C52.8106 118.925 52.7446 119.411 52.7446 120.005L51.4576 119.456C51.4576 118.628 51.6166 117.878 51.9346 117.206C52.2586 116.534 52.7326 116 53.3566 115.604C53.9806 115.202 54.7486 115.001 55.6606 115.001C56.3806 115.001 56.9746 115.121 57.4426 115.361C57.9106 115.601 58.2826 115.907 58.5586 116.279C58.8346 116.651 59.0386 117.047 59.1706 117.467C59.3026 117.887 59.3866 118.286 59.4226 118.664C59.4646 119.036 59.4856 119.339 59.4856 119.573V125H57.2896ZM50.5486 125V115.28H52.4836V118.295H52.7446V125H50.5486Z" fill="black"/>
<path d="M5.12 155.24C4.31467 155.24 3.58933 155.107 2.944 154.84C2.304 154.568 1.77333 154.184 1.352 153.688C0.936 153.192 0.664 152.603 0.536 151.92L1.736 151.72C1.928 152.467 2.33333 153.053 2.952 153.48C3.57067 153.901 4.30933 154.112 5.168 154.112C5.73333 154.112 6.24 154.024 6.688 153.848C7.136 153.667 7.488 153.411 7.744 153.08C8 152.749 8.128 152.357 8.128 151.904C8.128 151.605 8.07467 151.352 7.968 151.144C7.86133 150.931 7.72 150.755 7.544 150.616C7.368 150.477 7.176 150.363 6.968 150.272C6.76 150.176 6.55733 150.099 6.36 150.04L3.44 149.168C3.088 149.067 2.76267 148.939 2.464 148.784C2.16533 148.624 1.904 148.435 1.68 148.216C1.46133 147.992 1.29067 147.731 1.168 147.432C1.04533 147.133 0.984 146.792 0.984 146.408C0.984 145.757 1.15467 145.195 1.496 144.72C1.83733 144.245 2.304 143.88 2.896 143.624C3.488 143.368 4.16267 143.243 4.92 143.248C5.688 143.248 6.37333 143.384 6.976 143.656C7.584 143.928 8.08533 144.317 8.48 144.824C8.87467 145.325 9.136 145.92 9.264 146.608L8.032 146.832C7.952 146.331 7.768 145.896 7.48 145.528C7.192 145.16 6.824 144.877 6.376 144.68C5.93333 144.477 5.44533 144.373 4.912 144.368C4.39467 144.368 3.93333 144.456 3.528 144.632C3.128 144.803 2.81067 145.037 2.576 145.336C2.34133 145.635 2.224 145.976 2.224 146.36C2.224 146.749 2.33067 147.061 2.544 147.296C2.76267 147.531 3.02933 147.715 3.344 147.848C3.664 147.981 3.97333 148.091 4.272 148.176L6.528 148.84C6.76267 148.904 7.03733 148.997 7.352 149.12C7.672 149.237 7.98133 149.408 8.28 149.632C8.584 149.851 8.83467 150.139 9.032 150.496C9.22933 150.853 9.328 151.307 9.328 151.856C9.328 152.389 9.22133 152.867 9.008 153.288C8.8 153.709 8.504 154.064 8.12 154.352C7.74133 154.64 7.296 154.859 6.784 155.008C6.27733 155.163 5.72267 155.24 5.12 155.24ZM10.9714 155L10.9794 143.48H12.1634V150.52L16.0194 146.36H17.5874L13.5394 150.68L18.1154 155H16.4034L12.1634 150.84V155H10.9714ZM22.4166 155.24C21.574 155.24 20.8433 155.053 20.2246 154.68C19.6113 154.307 19.134 153.781 18.7926 153.104C18.4513 152.427 18.2806 151.632 18.2806 150.72C18.2806 149.776 18.4486 148.96 18.7846 148.272C19.1206 147.584 19.5926 147.053 20.2006 146.68C20.814 146.307 21.5366 146.12 22.3686 146.12C23.222 146.12 23.95 146.317 24.5526 146.712C25.1553 147.101 25.6113 147.661 25.9206 148.392C26.23 149.123 26.3713 149.995 26.3446 151.008H25.1446V150.592C25.1233 149.472 24.8806 148.627 24.4166 148.056C23.958 147.485 23.286 147.2 22.4006 147.2C21.4726 147.2 20.7606 147.501 20.2646 148.104C19.774 148.707 19.5286 149.565 19.5286 150.68C19.5286 151.768 19.774 152.613 20.2646 153.216C20.7606 153.813 21.462 154.112 22.3686 154.112C22.9873 154.112 23.526 153.971 23.9846 153.688C24.4486 153.4 24.814 152.987 25.0806 152.448L26.1766 152.872C25.8353 153.624 25.3313 154.208 24.6646 154.624C24.0033 155.035 23.254 155.24 22.4166 155.24ZM19.1126 151.008V150.024H25.7126V151.008H19.1126ZM32.824 155C32.3387 155.101 31.8587 155.141 31.384 155.12C30.9147 155.099 30.4933 154.997 30.12 154.816C29.752 154.635 29.472 154.352 29.28 153.968C29.1253 153.648 29.04 153.325 29.024 153C29.0133 152.669 29.008 152.293 29.008 151.872V143.96H30.176V151.824C30.176 152.187 30.1787 152.491 30.184 152.736C30.1947 152.976 30.2507 153.189 30.352 153.376C30.544 153.733 30.848 153.947 31.264 154.016C31.6853 154.085 32.2053 154.069 32.824 153.968V155ZM27.16 147.368V146.36H32.824V147.368H27.16ZM37.7977 155.24C36.9284 155.24 36.1924 155.045 35.5898 154.656C34.9871 154.267 34.5284 153.731 34.2138 153.048C33.9044 152.36 33.7444 151.571 33.7338 150.68C33.7444 149.773 33.9098 148.979 34.2298 148.296C34.5498 147.608 35.0111 147.075 35.6138 146.696C36.2164 146.312 36.9471 146.12 37.8058 146.12C38.6804 146.12 39.4404 146.333 40.0858 146.76C40.7364 147.187 41.1818 147.771 41.4218 148.512L40.2698 148.88C40.0671 148.363 39.7444 147.963 39.3018 147.68C38.8644 147.392 38.3631 147.248 37.7977 147.248C37.1631 147.248 36.6378 147.395 36.2218 147.688C35.8058 147.976 35.4964 148.379 35.2938 148.896C35.0911 149.413 34.9871 150.008 34.9818 150.68C34.9924 151.715 35.2324 152.547 35.7018 153.176C36.1711 153.8 36.8698 154.112 37.7977 154.112C38.3844 154.112 38.8831 153.979 39.2938 153.712C39.7098 153.44 40.0244 153.045 40.2378 152.528L41.4218 152.88C41.1018 153.648 40.6324 154.235 40.0138 154.64C39.3951 155.04 38.6564 155.24 37.7977 155.24ZM49.3131 155V150.592C49.3131 150.112 49.2678 149.672 49.1771 149.272C49.0865 148.867 48.9398 148.515 48.7371 148.216C48.5398 147.912 48.2811 147.677 47.9611 147.512C47.6465 147.347 47.2625 147.264 46.8091 147.264C46.3931 147.264 46.0251 147.336 45.7051 147.48C45.3905 147.624 45.1238 147.832 44.9051 148.104C44.6918 148.371 44.5291 148.696 44.4171 149.08C44.3051 149.464 44.2491 149.901 44.2491 150.392L43.4171 150.208C43.4171 149.323 43.5718 148.579 43.8811 147.976C44.1905 147.373 44.6171 146.917 45.1611 146.608C45.7051 146.299 46.3291 146.144 47.0331 146.144C47.5505 146.144 48.0011 146.224 48.3851 146.384C48.7745 146.544 49.1025 146.76 49.3691 147.032C49.6411 147.304 49.8598 147.616 50.0251 147.968C50.1905 148.315 50.3105 148.685 50.3851 149.08C50.4598 149.469 50.4971 149.859 50.4971 150.248V155H49.3131ZM43.0651 155V143.48H44.1291V149.984H44.2491V155H43.0651ZM59.3843 155.24C58.5256 155.24 57.7923 155.045 57.1843 154.656C56.5763 154.267 56.1096 153.728 55.7843 153.04C55.4589 152.352 55.2963 151.563 55.2963 150.672C55.2963 149.765 55.4616 148.971 55.7923 148.288C56.1229 147.605 56.5923 147.075 57.2003 146.696C57.8136 146.312 58.5416 146.12 59.3843 146.12C60.2483 146.12 60.9843 146.315 61.5923 146.704C62.2056 147.088 62.6723 147.624 62.9923 148.312C63.3176 148.995 63.4803 149.781 63.4803 150.672C63.4803 151.579 63.3176 152.376 62.9923 153.064C62.6669 153.747 62.1976 154.28 61.5843 154.664C60.9709 155.048 60.2376 155.24 59.3843 155.24ZM59.3843 154.112C60.3443 154.112 61.0589 153.795 61.5283 153.16C61.9976 152.52 62.2323 151.691 62.2323 150.672C62.2323 149.627 61.9949 148.795 61.5203 148.176C61.0509 147.557 60.3389 147.248 59.3843 147.248C58.7389 147.248 58.2056 147.395 57.7843 147.688C57.3683 147.976 57.0563 148.379 56.8483 148.896C56.6456 149.408 56.5443 150 56.5443 150.672C56.5443 151.712 56.7843 152.547 57.2643 153.176C57.7443 153.8 58.4509 154.112 59.3843 154.112ZM68.549 155.216C68.0317 155.216 67.5783 155.136 67.189 154.976C66.805 154.816 66.477 154.6 66.205 154.328C65.9383 154.056 65.7223 153.747 65.557 153.4C65.3917 153.048 65.2717 152.677 65.197 152.288C65.1223 151.893 65.085 151.501 65.085 151.112V146.36H66.269V150.768C66.269 151.243 66.3143 151.683 66.405 152.088C66.4957 152.493 66.6397 152.848 66.837 153.152C67.0397 153.451 67.2983 153.683 67.613 153.848C67.933 154.013 68.3197 154.096 68.773 154.096C69.189 154.096 69.5543 154.024 69.869 153.88C70.189 153.736 70.4557 153.531 70.669 153.264C70.8877 152.992 71.053 152.664 71.165 152.28C71.277 151.891 71.333 151.453 71.333 150.968L72.165 151.152C72.165 152.037 72.0103 152.781 71.701 153.384C71.3917 153.987 70.965 154.443 70.421 154.752C69.877 155.061 69.253 155.216 68.549 155.216ZM71.453 155V152.872H71.333V146.36H72.509V155H71.453ZM79.449 155C78.9637 155.101 78.4837 155.141 78.009 155.12C77.5397 155.099 77.1183 154.997 76.745 154.816C76.377 154.635 76.097 154.352 75.905 153.968C75.7503 153.648 75.665 153.325 75.649 153C75.6383 152.669 75.633 152.293 75.633 151.872V143.96H76.801V151.824C76.801 152.187 76.8037 152.491 76.809 152.736C76.8197 152.976 76.8757 153.189 76.977 153.376C77.169 153.733 77.473 153.947 77.889 154.016C78.3103 154.085 78.8303 154.069 79.449 153.968V155ZM73.785 147.368V146.36H79.449V147.368H73.785ZM89.0584 155C88.573 155.101 88.093 155.141 87.6184 155.12C87.149 155.099 86.7277 154.997 86.3544 154.816C85.9864 154.635 85.7064 154.352 85.5144 153.968C85.3597 153.648 85.2744 153.325 85.2584 153C85.2477 152.669 85.2424 152.293 85.2424 151.872V143.96H86.4104V151.824C86.4104 152.187 86.413 152.491 86.4184 152.736C86.429 152.976 86.485 153.189 86.5864 153.376C86.7784 153.733 87.0824 153.947 87.4984 154.016C87.9197 154.085 88.4397 154.069 89.0584 153.968V155ZM83.3944 147.368V146.36H89.0584V147.368H83.3944ZM97.0006 155V150.592C97.0006 150.112 96.9553 149.672 96.8646 149.272C96.774 148.867 96.6273 148.515 96.4246 148.216C96.2273 147.912 95.9686 147.677 95.6486 147.512C95.334 147.347 94.95 147.264 94.4966 147.264C94.0806 147.264 93.7126 147.336 93.3926 147.48C93.078 147.624 92.8113 147.832 92.5926 148.104C92.3793 148.371 92.2166 148.696 92.1046 149.08C91.9926 149.464 91.9366 149.901 91.9366 150.392L91.1046 150.208C91.1046 149.323 91.2593 148.579 91.5686 147.976C91.878 147.373 92.3046 146.917 92.8486 146.608C93.3926 146.299 94.0166 146.144 94.7206 146.144C95.238 146.144 95.6886 146.224 96.0726 146.384C96.462 146.544 96.79 146.76 97.0566 147.032C97.3286 147.304 97.5473 147.616 97.7126 147.968C97.878 148.315 97.998 148.685 98.0726 149.08C98.1473 149.469 98.1846 149.859 98.1846 150.248V155H97.0006ZM90.7526 155V143.48H91.8166V149.984H91.9366V155H90.7526ZM103.917 155.24C103.074 155.24 102.343 155.053 101.725 154.68C101.111 154.307 100.634 153.781 100.293 153.104C99.9513 152.427 99.7806 151.632 99.7806 150.72C99.7806 149.776 99.9486 148.96 100.285 148.272C100.621 147.584 101.093 147.053 101.701 146.68C102.314 146.307 103.037 146.12 103.869 146.12C104.722 146.12 105.45 146.317 106.053 146.712C106.655 147.101 107.111 147.661 107.421 148.392C107.73 149.123 107.871 149.995 107.845 151.008H106.645V150.592C106.623 149.472 106.381 148.627 105.917 148.056C105.458 147.485 104.786 147.2 103.901 147.2C102.973 147.2 102.261 147.501 101.765 148.104C101.274 148.707 101.029 149.565 101.029 150.68C101.029 151.768 101.274 152.613 101.765 153.216C102.261 153.813 102.962 154.112 103.869 154.112C104.487 154.112 105.026 153.971 105.485 153.688C105.949 153.4 106.314 152.987 106.581 152.448L107.677 152.872C107.335 153.624 106.831 154.208 106.165 154.624C105.503 155.035 104.754 155.24 103.917 155.24ZM100.613 151.008V150.024H107.213V151.008H100.613ZM116.703 155.24C115.908 155.24 115.236 155.04 114.687 154.64C114.138 154.235 113.722 153.688 113.439 153C113.156 152.307 113.015 151.531 113.015 150.672C113.015 149.797 113.156 149.019 113.439 148.336C113.727 147.648 114.148 147.107 114.703 146.712C115.258 146.317 115.94 146.12 116.751 146.12C117.54 146.12 118.218 146.32 118.783 146.72C119.348 147.12 119.78 147.664 120.079 148.352C120.383 149.04 120.535 149.813 120.535 150.672C120.535 151.536 120.383 152.312 120.079 153C119.775 153.688 119.338 154.235 118.767 154.64C118.196 155.04 117.508 155.24 116.703 155.24ZM112.815 158.84V146.36H113.871V152.864H113.999V158.84H112.815ZM116.583 154.144C117.186 154.144 117.687 153.992 118.087 153.688C118.487 153.384 118.786 152.971 118.983 152.448C119.186 151.92 119.287 151.328 119.287 150.672C119.287 150.021 119.188 149.435 118.991 148.912C118.794 148.389 118.492 147.976 118.087 147.672C117.687 147.368 117.178 147.216 116.559 147.216C115.956 147.216 115.455 147.363 115.055 147.656C114.66 147.949 114.364 148.357 114.167 148.88C113.97 149.397 113.871 149.995 113.871 150.672C113.871 151.339 113.97 151.936 114.167 152.464C114.364 152.987 114.663 153.397 115.063 153.696C115.463 153.995 115.97 154.144 116.583 154.144ZM122.292 155V146.36H123.348V148.44L123.14 148.168C123.236 147.912 123.361 147.677 123.516 147.464C123.671 147.245 123.839 147.067 124.02 146.928C124.244 146.731 124.505 146.581 124.804 146.48C125.103 146.373 125.404 146.312 125.708 146.296C126.012 146.275 126.289 146.296 126.54 146.36V147.464C126.225 147.384 125.881 147.365 125.508 147.408C125.135 147.451 124.791 147.6 124.476 147.856C124.188 148.08 123.972 148.349 123.828 148.664C123.684 148.973 123.588 149.304 123.54 149.656C123.492 150.003 123.468 150.347 123.468 150.688V155H122.292ZM131.509 155.24C130.651 155.24 129.917 155.045 129.309 154.656C128.701 154.267 128.235 153.728 127.909 153.04C127.584 152.352 127.421 151.563 127.421 150.672C127.421 149.765 127.587 148.971 127.917 148.288C128.248 147.605 128.717 147.075 129.325 146.696C129.939 146.312 130.667 146.12 131.509 146.12C132.373 146.12 133.109 146.315 133.717 146.704C134.331 147.088 134.797 147.624 135.117 148.312C135.443 148.995 135.605 149.781 135.605 150.672C135.605 151.579 135.443 152.376 135.117 153.064C134.792 153.747 134.323 154.28 133.709 154.664C133.096 155.048 132.363 155.24 131.509 155.24ZM131.509 154.112C132.469 154.112 133.184 153.795 133.653 153.16C134.123 152.52 134.357 151.691 134.357 150.672C134.357 149.627 134.12 148.795 133.645 148.176C133.176 147.557 132.464 147.248 131.509 147.248C130.864 147.248 130.331 147.395 129.909 147.688C129.493 147.976 129.181 148.379 128.973 148.896C128.771 149.408 128.669 150 128.669 150.672C128.669 151.712 128.909 152.547 129.389 153.176C129.869 153.8 130.576 154.112 131.509 154.112ZM140.722 155.24C139.917 155.24 139.229 155.04 138.658 154.64C138.087 154.235 137.65 153.688 137.346 153C137.042 152.312 136.89 151.536 136.89 150.672C136.89 149.813 137.039 149.04 137.338 148.352C137.642 147.664 138.077 147.12 138.642 146.72C139.207 146.32 139.885 146.12 140.674 146.12C141.485 146.12 142.167 146.317 142.722 146.712C143.277 147.107 143.695 147.648 143.978 148.336C144.266 149.019 144.41 149.797 144.41 150.672C144.41 151.531 144.269 152.307 143.986 153C143.703 153.688 143.287 154.235 142.738 154.64C142.189 155.04 141.517 155.24 140.722 155.24ZM140.842 154.144C141.455 154.144 141.962 153.995 142.362 153.696C142.762 153.397 143.061 152.987 143.258 152.464C143.455 151.936 143.554 151.339 143.554 150.672C143.554 149.995 143.455 149.397 143.258 148.88C143.061 148.357 142.762 147.949 142.362 147.656C141.967 147.363 141.469 147.216 140.866 147.216C140.247 147.216 139.735 147.368 139.33 147.672C138.925 147.976 138.623 148.389 138.426 148.912C138.234 149.435 138.138 150.021 138.138 150.672C138.138 151.328 138.237 151.92 138.434 152.448C138.637 152.971 138.938 153.384 139.338 153.688C139.738 153.992 140.239 154.144 140.842 154.144ZM143.554 155V148.496H143.426V143.48H144.61V155H143.554ZM150.158 155.216C149.641 155.216 149.188 155.136 148.798 154.976C148.414 154.816 148.086 154.6 147.814 154.328C147.548 154.056 147.332 153.747 147.166 153.4C147.001 153.048 146.881 152.677 146.806 152.288C146.732 151.893 146.694 151.501 146.694 151.112V146.36H147.878V150.768C147.878 151.243 147.924 151.683 148.014 152.088C148.105 152.493 148.249 152.848 148.446 153.152C148.649 153.451 148.908 153.683 149.222 153.848C149.542 154.013 149.929 154.096 150.382 154.096C150.798 154.096 151.164 154.024 151.478 153.88C151.798 153.736 152.065 153.531 152.278 153.264C152.497 152.992 152.662 152.664 152.774 152.28C152.886 151.891 152.942 151.453 152.942 150.968L153.774 151.152C153.774 152.037 153.62 152.781 153.31 153.384C153.001 153.987 152.574 154.443 152.03 154.752C151.486 155.061 150.862 155.216 150.158 155.216ZM153.062 155V152.872H152.942V146.36H154.118V155H153.062ZM159.938 155.24C159.069 155.24 158.333 155.045 157.73 154.656C157.128 154.267 156.669 153.731 156.354 153.048C156.045 152.36 155.885 151.571 155.874 150.68C155.885 149.773 156.05 148.979 156.37 148.296C156.69 147.608 157.152 147.075 157.754 146.696C158.357 146.312 159.088 146.12 159.946 146.12C160.821 146.12 161.581 146.333 162.226 146.76C162.877 147.187 163.322 147.771 163.562 148.512L162.41 148.88C162.208 148.363 161.885 147.963 161.442 147.68C161.005 147.392 160.504 147.248 159.938 147.248C159.304 147.248 158.778 147.395 158.362 147.688C157.946 147.976 157.637 148.379 157.434 148.896C157.232 149.413 157.128 150.008 157.122 150.68C157.133 151.715 157.373 152.547 157.842 153.176C158.312 153.8 159.01 154.112 159.938 154.112C160.525 154.112 161.024 153.979 161.434 153.712C161.85 153.44 162.165 153.045 162.378 152.528L163.562 152.88C163.242 153.648 162.773 154.235 162.154 154.64C161.536 155.04 160.797 155.24 159.938 155.24ZM169.918 155C169.432 155.101 168.952 155.141 168.478 155.12C168.008 155.099 167.587 154.997 167.214 154.816C166.846 154.635 166.566 154.352 166.374 153.968C166.219 153.648 166.134 153.325 166.118 153C166.107 152.669 166.102 152.293 166.102 151.872V143.96H167.27V151.824C167.27 152.187 167.272 152.491 167.278 152.736C167.288 152.976 167.344 153.189 167.446 153.376C167.638 153.733 167.942 153.947 168.358 154.016C168.779 154.085 169.299 154.069 169.918 153.968V155ZM164.254 147.368V146.36H169.918V147.368H164.254ZM179.527 155C179.042 155.101 178.562 155.141 178.087 155.12C177.618 155.099 177.196 154.997 176.823 154.816C176.455 154.635 176.175 154.352 175.983 153.968C175.828 153.648 175.743 153.325 175.727 153C175.716 152.669 175.711 152.293 175.711 151.872V143.96H176.879V151.824C176.879 152.187 176.882 152.491 176.887 152.736C176.898 152.976 176.954 153.189 177.055 153.376C177.247 153.733 177.551 153.947 177.967 154.016C178.388 154.085 178.908 154.069 179.527 153.968V155ZM173.863 147.368V146.36H179.527V147.368H173.863ZM184.525 155.24C183.666 155.24 182.933 155.045 182.325 154.656C181.717 154.267 181.25 153.728 180.925 153.04C180.6 152.352 180.437 151.563 180.437 150.672C180.437 149.765 180.602 148.971 180.933 148.288C181.264 147.605 181.733 147.075 182.341 146.696C182.954 146.312 183.682 146.12 184.525 146.12C185.389 146.12 186.125 146.315 186.733 146.704C187.346 147.088 187.813 147.624 188.133 148.312C188.458 148.995 188.621 149.781 188.621 150.672C188.621 151.579 188.458 152.376 188.133 153.064C187.808 153.747 187.338 154.28 186.725 154.664C186.112 155.048 185.378 155.24 184.525 155.24ZM184.525 154.112C185.485 154.112 186.2 153.795 186.669 153.16C187.138 152.52 187.373 151.691 187.373 150.672C187.373 149.627 187.136 148.795 186.661 148.176C186.192 147.557 185.48 147.248 184.525 147.248C183.88 147.248 183.346 147.395 182.925 147.688C182.509 147.976 182.197 148.379 181.989 148.896C181.786 149.408 181.685 150 181.685 150.672C181.685 151.712 181.925 152.547 182.405 153.176C182.885 153.8 183.592 154.112 184.525 154.112ZM196.061 155.24C195.41 155.24 194.863 155.123 194.421 154.888C193.983 154.653 193.655 154.341 193.437 153.952C193.218 153.563 193.109 153.139 193.109 152.68C193.109 152.211 193.202 151.811 193.389 151.48C193.581 151.144 193.839 150.869 194.165 150.656C194.495 150.443 194.877 150.28 195.309 150.168C195.746 150.061 196.229 149.968 196.757 149.888C197.29 149.803 197.81 149.731 198.317 149.672C198.829 149.608 199.277 149.547 199.661 149.488L199.245 149.744C199.261 148.891 199.095 148.259 198.749 147.848C198.402 147.437 197.799 147.232 196.941 147.232C196.349 147.232 195.847 147.365 195.437 147.632C195.031 147.899 194.746 148.32 194.581 148.896L193.437 148.56C193.634 147.787 194.031 147.187 194.629 146.76C195.226 146.333 196.002 146.12 196.957 146.12C197.746 146.12 198.415 146.269 198.965 146.568C199.519 146.861 199.911 147.288 200.141 147.848C200.247 148.099 200.317 148.379 200.349 148.688C200.381 148.997 200.397 149.312 200.397 149.632V155H199.349V152.832L199.653 152.96C199.359 153.701 198.903 154.267 198.285 154.656C197.666 155.045 196.925 155.24 196.061 155.24ZM196.197 154.224C196.746 154.224 197.226 154.125 197.637 153.928C198.047 153.731 198.378 153.461 198.629 153.12C198.879 152.773 199.042 152.384 199.117 151.952C199.181 151.675 199.215 151.371 199.221 151.04C199.226 150.704 199.229 150.453 199.229 150.288L199.677 150.52C199.277 150.573 198.842 150.627 198.373 150.68C197.909 150.733 197.45 150.795 196.997 150.864C196.549 150.933 196.143 151.016 195.781 151.112C195.535 151.181 195.298 151.28 195.069 151.408C194.839 151.531 194.65 151.696 194.501 151.904C194.357 152.112 194.285 152.371 194.285 152.68C194.285 152.931 194.346 153.173 194.469 153.408C194.597 153.643 194.799 153.837 195.077 153.992C195.359 154.147 195.733 154.224 196.197 154.224ZM202.639 155V143.24H203.815V155H202.639ZM206.374 144.72V143.4H207.55V144.72H206.374ZM206.374 155V146.36H207.55V155H206.374ZM213.38 159.08C212.937 159.08 212.5 159.013 212.068 158.88C211.641 158.752 211.247 158.547 210.884 158.264C210.521 157.987 210.217 157.624 209.972 157.176L211.036 156.584C211.276 157.064 211.612 157.408 212.044 157.616C212.481 157.829 212.927 157.936 213.38 157.936C214.004 157.936 214.508 157.819 214.892 157.584C215.281 157.355 215.564 157.013 215.74 156.56C215.916 156.107 216.001 155.541 215.996 154.864V152.56H216.132V146.36H217.18V154.88C217.18 155.125 217.172 155.36 217.156 155.584C217.145 155.813 217.121 156.037 217.084 156.256C216.983 156.901 216.772 157.432 216.452 157.848C216.137 158.264 215.721 158.573 215.204 158.776C214.692 158.979 214.084 159.08 213.38 159.08ZM213.3 155.24C212.495 155.24 211.807 155.04 211.236 154.64C210.665 154.235 210.228 153.688 209.924 153C209.62 152.312 209.468 151.536 209.468 150.672C209.468 149.813 209.617 149.04 209.916 148.352C210.22 147.664 210.655 147.12 211.22 146.72C211.785 146.32 212.463 146.12 213.252 146.12C214.063 146.12 214.745 146.317 215.3 146.712C215.855 147.107 216.273 147.648 216.556 148.336C216.844 149.019 216.988 149.797 216.988 150.672C216.988 151.531 216.847 152.307 216.564 153C216.281 153.688 215.865 154.235 215.316 154.64C214.767 155.04 214.095 155.24 213.3 155.24ZM213.42 154.144C214.033 154.144 214.54 153.995 214.94 153.696C215.34 153.397 215.639 152.987 215.836 152.464C216.033 151.936 216.132 151.339 216.132 150.672C216.132 149.995 216.033 149.397 215.836 148.88C215.639 148.357 215.34 147.949 214.94 147.656C214.545 147.363 214.047 147.216 213.444 147.216C212.825 147.216 212.313 147.368 211.908 147.672C211.503 147.976 211.201 148.389 211.004 148.912C210.812 149.435 210.716 150.021 210.716 150.672C210.716 151.328 210.815 151.92 211.012 152.448C211.215 152.971 211.516 153.384 211.916 153.688C212.316 153.992 212.817 154.144 213.42 154.144ZM225.657 155V150.592C225.657 150.112 225.612 149.672 225.521 149.272C225.43 148.867 225.284 148.515 225.081 148.216C224.884 147.912 224.625 147.677 224.305 147.512C223.99 147.347 223.606 147.264 223.153 147.264C222.737 147.264 222.369 147.336 222.049 147.48C221.734 147.624 221.468 147.832 221.249 148.104C221.036 148.371 220.873 148.696 220.761 149.08C220.649 149.464 220.593 149.901 220.593 150.392L219.761 150.208C219.761 149.323 219.916 148.579 220.225 147.976C220.534 147.373 220.961 146.917 221.505 146.608C222.049 146.299 222.673 146.144 223.377 146.144C223.894 146.144 224.345 146.224 224.729 146.384C225.118 146.544 225.446 146.76 225.713 147.032C225.985 147.304 226.204 147.616 226.369 147.968C226.534 148.315 226.654 148.685 226.729 149.08C226.804 149.469 226.841 149.859 226.841 150.248V155H225.657ZM219.409 155V146.36H220.473V148.488H220.593V155H219.409ZM5.824 181C5.33867 181.101 4.85867 181.141 4.384 181.12C3.91467 181.099 3.49333 180.997 3.12 180.816C2.752 180.635 2.472 180.352 2.28 179.968C2.12533 179.648 2.04 179.325 2.024 179C2.01333 178.669 2.008 178.293 2.008 177.872V169.96H3.176V177.824C3.176 178.187 3.17867 178.491 3.184 178.736C3.19467 178.976 3.25067 179.189 3.352 179.376C3.544 179.733 3.848 179.947 4.264 180.016C4.68533 180.085 5.20533 180.069 5.824 179.968V181ZM0.16 173.368V172.36H5.824V173.368H0.16ZM13.7663 181V176.592C13.7663 176.112 13.7209 175.672 13.6303 175.272C13.5396 174.867 13.3929 174.515 13.1903 174.216C12.9929 173.912 12.7343 173.677 12.4143 173.512C12.0996 173.347 11.7156 173.264 11.2623 173.264C10.8463 173.264 10.4783 173.336 10.1583 173.48C9.84358 173.624 9.57692 173.832 9.35825 174.104C9.14492 174.371 8.98225 174.696 8.87025 175.08C8.75825 175.464 8.70225 175.901 8.70225 176.392L7.87025 176.208C7.87025 175.323 8.02492 174.579 8.33425 173.976C8.64358 173.373 9.07025 172.917 9.61425 172.608C10.1583 172.299 10.7823 172.144 11.4863 172.144C12.0036 172.144 12.4543 172.224 12.8383 172.384C13.2276 172.544 13.5556 172.76 13.8223 173.032C14.0943 173.304 14.3129 173.616 14.4783 173.968C14.6436 174.315 14.7636 174.685 14.8383 175.08C14.9129 175.469 14.9503 175.859 14.9503 176.248V181H13.7663ZM7.51825 181V169.48H8.58225V175.984H8.70225V181H7.51825ZM20.6823 181.24C19.8396 181.24 19.1089 181.053 18.4903 180.68C17.8769 180.307 17.3996 179.781 17.0583 179.104C16.7169 178.427 16.5463 177.632 16.5463 176.72C16.5463 175.776 16.7143 174.96 17.0503 174.272C17.3863 173.584 17.8583 173.053 18.4663 172.68C19.0796 172.307 19.8023 172.12 20.6343 172.12C21.4876 172.12 22.2156 172.317 22.8183 172.712C23.4209 173.101 23.8769 173.661 24.1863 174.392C24.4956 175.123 24.6369 175.995 24.6103 177.008H23.4103V176.592C23.3889 175.472 23.1463 174.627 22.6823 174.056C22.2236 173.485 21.5516 173.2 20.6663 173.2C19.7383 173.2 19.0263 173.501 18.5303 174.104C18.0396 174.707 17.7943 175.565 17.7943 176.68C17.7943 177.768 18.0396 178.613 18.5303 179.216C19.0263 179.813 19.7276 180.112 20.6343 180.112C21.2529 180.112 21.7916 179.971 22.2503 179.688C22.7143 179.4 23.0796 178.987 23.3463 178.448L24.4423 178.872C24.1009 179.624 23.5969 180.208 22.9303 180.624C22.2689 181.035 21.5196 181.24 20.6823 181.24ZM17.3783 177.008V176.024H23.9783V177.008H17.3783ZM32.8928 181.216C32.3754 181.216 31.9221 181.136 31.5328 180.976C31.1488 180.816 30.8208 180.6 30.5488 180.328C30.2821 180.056 30.0661 179.747 29.9008 179.4C29.7354 179.048 29.6154 178.677 29.5408 178.288C29.4661 177.893 29.4288 177.501 29.4288 177.112V172.36H30.6128V176.768C30.6128 177.243 30.6581 177.683 30.7488 178.088C30.8394 178.493 30.9834 178.848 31.1808 179.152C31.3834 179.451 31.6421 179.683 31.9568 179.848C32.2768 180.013 32.6634 180.096 33.1168 180.096C33.5328 180.096 33.8981 180.024 34.2128 179.88C34.5328 179.736 34.7994 179.531 35.0128 179.264C35.2314 178.992 35.3968 178.664 35.5088 178.28C35.6208 177.891 35.6768 177.453 35.6768 176.968L36.5087 177.152C36.5087 178.037 36.3541 178.781 36.0448 179.384C35.7354 179.987 35.3088 180.443 34.7648 180.752C34.2208 181.061 33.5968 181.216 32.8928 181.216ZM35.7968 181V178.872H35.6768V172.36H36.8528V181H35.7968ZM42.3128 181.232C41.2994 181.232 40.4648 181.013 39.8088 180.576C39.1581 180.139 38.7581 179.531 38.6088 178.752L39.8088 178.552C39.9368 179.043 40.2274 179.435 40.6808 179.728C41.1394 180.016 41.7048 180.16 42.3767 180.16C43.0328 180.16 43.5501 180.024 43.9288 179.752C44.3074 179.475 44.4968 179.099 44.4968 178.624C44.4968 178.357 44.4354 178.141 44.3128 177.976C44.1954 177.805 43.9528 177.648 43.5848 177.504C43.2168 177.36 42.6674 177.189 41.9368 176.992C41.1528 176.779 40.5394 176.565 40.0968 176.352C39.6541 176.139 39.3394 175.893 39.1528 175.616C38.9661 175.333 38.8728 174.989 38.8728 174.584C38.8728 174.093 39.0114 173.664 39.2888 173.296C39.5661 172.923 39.9501 172.635 40.4408 172.432C40.9314 172.224 41.5021 172.12 42.1528 172.12C42.8034 172.12 43.3848 172.227 43.8968 172.44C44.4141 172.648 44.8301 172.941 45.1448 173.32C45.4594 173.699 45.6461 174.139 45.7048 174.64L44.5048 174.856C44.4248 174.349 44.1714 173.949 43.7448 173.656C43.3234 173.357 42.7874 173.203 42.1368 173.192C41.5234 173.176 41.0248 173.293 40.6408 173.544C40.2568 173.789 40.0648 174.117 40.0648 174.528C40.0648 174.757 40.1341 174.955 40.2728 175.12C40.4114 175.28 40.6621 175.432 41.0248 175.576C41.3928 175.72 41.9154 175.877 42.5928 176.048C43.3874 176.251 44.0114 176.464 44.4648 176.688C44.9181 176.912 45.2408 177.176 45.4328 177.48C45.6248 177.784 45.7208 178.16 45.7208 178.608C45.7208 179.424 45.4168 180.067 44.8088 180.536C44.2061 181 43.3741 181.232 42.3128 181.232ZM51.151 181.24C50.3083 181.24 49.5777 181.053 48.959 180.68C48.3457 180.307 47.8683 179.781 47.527 179.104C47.1857 178.427 47.015 177.632 47.015 176.72C47.015 175.776 47.183 174.96 47.519 174.272C47.855 173.584 48.327 173.053 48.935 172.68C49.5483 172.307 50.271 172.12 51.103 172.12C51.9563 172.12 52.6843 172.317 53.287 172.712C53.8897 173.101 54.3457 173.661 54.655 174.392C54.9643 175.123 55.1057 175.995 55.079 177.008H53.879V176.592C53.8577 175.472 53.615 174.627 53.151 174.056C52.6923 173.485 52.0203 173.2 51.135 173.2C50.207 173.2 49.495 173.501 48.999 174.104C48.5083 174.707 48.263 175.565 48.263 176.68C48.263 177.768 48.5083 178.613 48.999 179.216C49.495 179.813 50.1963 180.112 51.103 180.112C51.7217 180.112 52.2603 179.971 52.719 179.688C53.183 179.4 53.5483 178.987 53.815 178.448L54.911 178.872C54.5697 179.624 54.0657 180.208 53.399 180.624C52.7377 181.035 51.9883 181.24 51.151 181.24ZM47.847 177.008V176.024H54.447V177.008H47.847ZM56.8544 181V172.36H57.9104V174.44L57.7024 174.168C57.7984 173.912 57.9237 173.677 58.0784 173.464C58.233 173.245 58.401 173.067 58.5824 172.928C58.8064 172.731 59.0677 172.581 59.3664 172.48C59.665 172.373 59.9664 172.312 60.2704 172.296C60.5744 172.275 60.8517 172.296 61.1024 172.36V173.464C60.7877 173.384 60.4437 173.365 60.0704 173.408C59.697 173.451 59.353 173.6 59.0384 173.856C58.7504 174.08 58.5344 174.349 58.3904 174.664C58.2464 174.973 58.1504 175.304 58.1024 175.656C58.0544 176.003 58.0304 176.347 58.0304 176.688V181H56.8544ZM72.0631 181V176.592C72.0631 176.112 72.0178 175.672 71.9271 175.272C71.8365 174.867 71.6898 174.515 71.4871 174.216C71.2898 173.912 71.0311 173.677 70.7111 173.512C70.3965 173.347 70.0125 173.264 69.5591 173.264C69.1431 173.264 68.7751 173.336 68.4551 173.48C68.1405 173.624 67.8738 173.832 67.6551 174.104C67.4418 174.371 67.2791 174.696 67.1671 175.08C67.0551 175.464 66.9991 175.901 66.9991 176.392L66.1671 176.208C66.1671 175.323 66.3218 174.579 66.6311 173.976C66.9405 173.373 67.3671 172.917 67.9111 172.608C68.4551 172.299 69.0791 172.144 69.7831 172.144C70.3005 172.144 70.7511 172.224 71.1351 172.384C71.5245 172.544 71.8525 172.76 72.1191 173.032C72.3911 173.304 72.6098 173.616 72.7751 173.968C72.9405 174.315 73.0605 174.685 73.1351 175.08C73.2098 175.469 73.2471 175.859 73.2471 176.248V181H72.0631ZM65.8151 181V172.36H66.8791V174.488H66.9991V181H65.8151ZM78.9166 181.24C78.074 181.24 77.3433 181.053 76.7246 180.68C76.1113 180.307 75.634 179.781 75.2926 179.104C74.9513 178.427 74.7806 177.632 74.7806 176.72C74.7806 175.776 74.9486 174.96 75.2846 174.272C75.6206 173.584 76.0926 173.053 76.7006 172.68C77.314 172.307 78.0366 172.12 78.8686 172.12C79.722 172.12 80.45 172.317 81.0526 172.712C81.6553 173.101 82.1113 173.661 82.4206 174.392C82.73 175.123 82.8713 175.995 82.8446 177.008H81.6446V176.592C81.6233 175.472 81.3806 174.627 80.9166 174.056C80.458 173.485 79.786 173.2 78.9006 173.2C77.9726 173.2 77.2606 173.501 76.7646 174.104C76.274 174.707 76.0286 175.565 76.0286 176.68C76.0286 177.768 76.274 178.613 76.7646 179.216C77.2606 179.813 77.962 180.112 78.8686 180.112C79.4873 180.112 80.026 179.971 80.4846 179.688C80.9486 179.4 81.314 178.987 81.5806 178.448L82.6766 178.872C82.3353 179.624 81.8313 180.208 81.1646 180.624C80.5033 181.035 79.754 181.24 78.9166 181.24ZM75.6126 177.008V176.024H82.2126V177.008H75.6126ZM88.276 181.24C87.4333 181.24 86.7027 181.053 86.084 180.68C85.4707 180.307 84.9933 179.781 84.652 179.104C84.3107 178.427 84.14 177.632 84.14 176.72C84.14 175.776 84.308 174.96 84.644 174.272C84.98 173.584 85.452 173.053 86.06 172.68C86.6733 172.307 87.396 172.12 88.228 172.12C89.0813 172.12 89.8093 172.317 90.412 172.712C91.0147 173.101 91.4707 173.661 91.78 174.392C92.0893 175.123 92.2307 175.995 92.204 177.008H91.004V176.592C90.9827 175.472 90.74 174.627 90.276 174.056C89.8173 173.485 89.1453 173.2 88.26 173.2C87.332 173.2 86.62 173.501 86.124 174.104C85.6333 174.707 85.388 175.565 85.388 176.68C85.388 177.768 85.6333 178.613 86.124 179.216C86.62 179.813 87.3213 180.112 88.228 180.112C88.8467 180.112 89.3853 179.971 89.844 179.688C90.308 179.4 90.6733 178.987 90.94 178.448L92.036 178.872C91.6947 179.624 91.1907 180.208 90.524 180.624C89.8627 181.035 89.1133 181.24 88.276 181.24ZM84.972 177.008V176.024H91.572V177.008H84.972ZM97.3314 181.24C96.526 181.24 95.838 181.04 95.2674 180.64C94.6967 180.235 94.2594 179.688 93.9554 179C93.6514 178.312 93.4994 177.536 93.4994 176.672C93.4994 175.813 93.6487 175.04 93.9474 174.352C94.2514 173.664 94.686 173.12 95.2514 172.72C95.8167 172.32 96.494 172.12 97.2834 172.12C98.094 172.12 98.7767 172.317 99.3314 172.712C99.886 173.107 100.305 173.648 100.587 174.336C100.875 175.019 101.019 175.797 101.019 176.672C101.019 177.531 100.878 178.307 100.595 179C100.313 179.688 99.8967 180.235 99.3474 180.64C98.798 181.04 98.126 181.24 97.3314 181.24ZM97.4514 180.144C98.0647 180.144 98.5714 179.995 98.9714 179.696C99.3714 179.397 99.67 178.987 99.8674 178.464C100.065 177.936 100.163 177.339 100.163 176.672C100.163 175.995 100.065 175.397 99.8674 174.88C99.67 174.357 99.3714 173.949 98.9714 173.656C98.5767 173.363 98.078 173.216 97.4754 173.216C96.8567 173.216 96.3447 173.368 95.9394 173.672C95.534 173.976 95.2327 174.389 95.0354 174.912C94.8434 175.435 94.7474 176.021 94.7474 176.672C94.7474 177.328 94.846 177.92 95.0434 178.448C95.246 178.971 95.5474 179.384 95.9474 179.688C96.3474 179.992 96.8487 180.144 97.4514 180.144ZM100.163 181V174.496H100.035V169.48H101.219V181H100.163ZM106.688 181.232C105.674 181.232 104.84 181.013 104.184 180.576C103.533 180.139 103.133 179.531 102.984 178.752L104.184 178.552C104.312 179.043 104.602 179.435 105.056 179.728C105.514 180.016 106.08 180.16 106.752 180.16C107.408 180.16 107.925 180.024 108.304 179.752C108.682 179.475 108.872 179.099 108.872 178.624C108.872 178.357 108.81 178.141 108.688 177.976C108.57 177.805 108.328 177.648 107.96 177.504C107.592 177.36 107.042 177.189 106.312 176.992C105.528 176.779 104.914 176.565 104.472 176.352C104.029 176.139 103.714 175.893 103.528 175.616C103.341 175.333 103.248 174.989 103.248 174.584C103.248 174.093 103.386 173.664 103.664 173.296C103.941 172.923 104.325 172.635 104.816 172.432C105.306 172.224 105.877 172.12 106.528 172.12C107.178 172.12 107.76 172.227 108.272 172.44C108.789 172.648 109.205 172.941 109.52 173.32C109.834 173.699 110.021 174.139 110.08 174.64L108.88 174.856C108.8 174.349 108.546 173.949 108.12 173.656C107.698 173.357 107.162 173.203 106.512 173.192C105.898 173.176 105.4 173.293 105.016 173.544C104.632 173.789 104.44 174.117 104.44 174.528C104.44 174.757 104.509 174.955 104.648 175.12C104.786 175.28 105.037 175.432 105.4 175.576C105.768 175.72 106.29 175.877 106.968 176.048C107.762 176.251 108.386 176.464 108.84 176.688C109.293 176.912 109.616 177.176 109.808 177.48C110 177.784 110.096 178.16 110.096 178.608C110.096 179.424 109.792 180.067 109.184 180.536C108.581 181 107.749 181.232 106.688 181.232Z" fill="black"/>
<defs>
<clipPath id="clip0">
<rect width="251.904" height="72" fill="white" transform="translate(0 16)"/>
</clipPath>
</defs>
</svg>
