<svg width="255" height="204" viewBox="0 0 255 204" fill="none" xmlns="http://www.w3.org/2000/svg">
<rect y="16" width="72" height="72" rx="36" fill="#FAFAFA"/>
<path d="M33 50H26C25.7348 50 25.4804 49.8946 25.2929 49.7071C25.1054 49.5196 25 49.2652 25 49V42C25 41.7348 25.1054 41.4804 25.2929 41.2929C25.4804 41.1054 25.7348 41 26 41H33C33.2652 41 33.5196 41.1054 33.7071 41.2929C33.8946 41.4804 34 41.7348 34 42V49C34 49.2652 33.8946 49.5196 33.7071 49.7071C33.5196 49.8946 33.2652 50 33 50Z" fill="#8C30F5"/>
<path d="M33 63H26C25.7348 63 25.4804 62.8946 25.2929 62.7071C25.1054 62.5196 25 62.2652 25 62V55C25 54.7348 25.1054 54.4804 25.2929 54.2929C25.4804 54.1054 25.7348 54 26 54H33C33.2652 54 33.5196 54.1054 33.7071 54.2929C33.8946 54.4804 34 54.7348 34 55V62C34 62.2652 33.8946 62.5196 33.7071 62.7071C33.5196 62.8946 33.2652 63 33 63Z" fill="#8C30F5"/>
<path d="M37 42H47V44H37V42Z" fill="#2EC5CE"/>
<path d="M47 55H37V57H47V55Z" fill="#2EC5CE"/>
<path d="M47 60H37V62H47V60Z" fill="#D6B1FF"/>
<path d="M47 47H37V49H47V47Z" fill="#D6B1FF"/>
<path d="M1.26 125V112.04H5.391C5.499 112.04 5.712 112.043 6.03 112.049C6.354 112.055 6.666 112.076 6.966 112.112C7.992 112.244 8.859 112.61 9.567 113.21C10.281 113.804 10.821 114.563 11.187 115.487C11.553 116.411 11.736 117.422 11.736 118.52C11.736 119.618 11.553 120.629 11.187 121.553C10.821 122.477 10.281 123.239 9.567 123.839C8.859 124.433 7.992 124.796 6.966 124.928C6.672 124.964 6.363 124.985 6.039 124.991C5.715 124.997 5.499 125 5.391 125H1.26ZM3.465 122.957H5.391C5.571 122.957 5.799 122.951 6.075 122.939C6.357 122.927 6.606 122.9 6.822 122.858C7.434 122.744 7.932 122.471 8.316 122.039C8.7 121.607 8.982 121.082 9.162 120.464C9.348 119.846 9.441 119.198 9.441 118.52C9.441 117.818 9.348 117.158 9.162 116.54C8.976 115.922 8.688 115.403 8.298 114.983C7.914 114.563 7.422 114.296 6.822 114.182C6.606 114.134 6.357 114.107 6.075 114.101C5.799 114.089 5.571 114.083 5.391 114.083H3.465V122.957ZM18.2825 125.27C17.2985 125.27 16.4345 125.057 15.6905 124.631C14.9465 124.205 14.3645 123.614 13.9445 122.858C13.5305 122.102 13.3235 121.232 13.3235 120.248C13.3235 119.186 13.5275 118.265 13.9355 117.485C14.3435 116.699 14.9105 116.09 15.6365 115.658C16.3625 115.226 17.2025 115.01 18.1565 115.01C19.1645 115.01 20.0195 115.247 20.7215 115.721C21.4295 116.189 21.9545 116.852 22.2965 117.71C22.6385 118.568 22.7675 119.579 22.6835 120.743H20.5325V119.951C20.5265 118.895 20.3405 118.124 19.9745 117.638C19.6085 117.152 19.0325 116.909 18.2465 116.909C17.3585 116.909 16.6985 117.185 16.2665 117.737C15.8345 118.283 15.6185 119.084 15.6185 120.14C15.6185 121.124 15.8345 121.886 16.2665 122.426C16.6985 122.966 17.3285 123.236 18.1565 123.236C18.6905 123.236 19.1495 123.119 19.5335 122.885C19.9235 122.645 20.2235 122.3 20.4335 121.85L22.5755 122.498C22.2035 123.374 21.6275 124.055 20.8475 124.541C20.0735 125.027 19.2185 125.27 18.2825 125.27ZM14.9345 120.743V119.105H21.6215V120.743H14.9345ZM29.099 125.27C28.151 125.27 27.356 125.045 26.714 124.595C26.072 124.145 25.589 123.533 25.265 122.759C24.941 121.979 24.779 121.106 24.779 120.14C24.779 119.162 24.941 118.286 25.265 117.512C25.589 116.738 26.063 116.129 26.687 115.685C27.317 115.235 28.094 115.01 29.018 115.01C29.936 115.01 30.731 115.235 31.403 115.685C32.081 116.129 32.606 116.738 32.978 117.512C33.35 118.28 33.536 119.156 33.536 120.14C33.536 121.112 33.353 121.985 32.987 122.759C32.621 123.533 32.105 124.145 31.439 124.595C30.773 125.045 29.993 125.27 29.099 125.27ZM24.41 129.32V115.28H26.327V122.102H26.597V129.32H24.41ZM28.766 123.326C29.33 123.326 29.795 123.185 30.161 122.903C30.527 122.621 30.797 122.24 30.971 121.76C31.151 121.274 31.241 120.734 31.241 120.14C31.241 119.552 31.151 119.018 30.971 118.538C30.791 118.052 30.512 117.668 30.134 117.386C29.756 117.098 29.276 116.954 28.694 116.954C28.142 116.954 27.692 117.089 27.344 117.359C26.996 117.623 26.738 117.995 26.57 118.475C26.408 118.949 26.327 119.504 26.327 120.14C26.327 120.77 26.408 121.325 26.57 121.805C26.738 122.285 26.999 122.66 27.353 122.93C27.713 123.194 28.184 123.326 28.766 123.326ZM35.6998 125V111.77H37.8688V125H35.6998ZM44.8577 125.27C43.8857 125.27 43.0367 125.051 42.3107 124.613C41.5847 124.175 41.0207 123.572 40.6187 122.804C40.2227 122.03 40.0247 121.142 40.0247 120.14C40.0247 119.12 40.2287 118.226 40.6367 117.458C41.0447 116.69 41.6117 116.09 42.3377 115.658C43.0637 115.226 43.9037 115.01 44.8577 115.01C45.8357 115.01 46.6877 115.229 47.4137 115.667C48.1397 116.105 48.7037 116.711 49.1057 117.485C49.5077 118.253 49.7087 119.138 49.7087 120.14C49.7087 121.148 49.5047 122.039 49.0967 122.813C48.6947 123.581 48.1307 124.184 47.4047 124.622C46.6787 125.054 45.8297 125.27 44.8577 125.27ZM44.8577 123.236C45.7217 123.236 46.3637 122.948 46.7837 122.372C47.2037 121.796 47.4137 121.052 47.4137 120.14C47.4137 119.198 47.2007 118.448 46.7747 117.89C46.3487 117.326 45.7097 117.044 44.8577 117.044C44.2757 117.044 43.7957 117.176 43.4177 117.44C43.0457 117.698 42.7697 118.061 42.5897 118.529C42.4097 118.991 42.3197 119.528 42.3197 120.14C42.3197 121.082 42.5327 121.835 42.9587 122.399C43.3907 122.957 44.0237 123.236 44.8577 123.236ZM52.6181 129.32L54.4901 124.181L54.5261 125.693L50.2871 115.28H52.5461L55.5521 122.984H54.9761L57.9011 115.28H60.0701L54.6521 129.32H52.6181Z" fill="black"/>
<path d="M1.28 155V143.48H2.456V153.872H7.928V155H1.28ZM11.7639 155.24C11.1132 155.24 10.5665 155.123 10.1239 154.888C9.68654 154.653 9.35854 154.341 9.13988 153.952C8.92121 153.563 8.81188 153.139 8.81188 152.68C8.81188 152.211 8.90521 151.811 9.09188 151.48C9.28388 151.144 9.54254 150.869 9.86788 150.656C10.1985 150.443 10.5799 150.28 11.0119 150.168C11.4492 150.061 11.9319 149.968 12.4599 149.888C12.9932 149.803 13.5132 149.731 14.0199 149.672C14.5319 149.608 14.9799 149.547 15.3639 149.488L14.9479 149.744C14.9639 148.891 14.7985 148.259 14.4519 147.848C14.1052 147.437 13.5025 147.232 12.6439 147.232C12.0519 147.232 11.5505 147.365 11.1399 147.632C10.7345 147.899 10.4492 148.32 10.2839 148.896L9.13988 148.56C9.33721 147.787 9.73454 147.187 10.3319 146.76C10.9292 146.333 11.7052 146.12 12.6599 146.12C13.4492 146.12 14.1185 146.269 14.6679 146.568C15.2225 146.861 15.6145 147.288 15.8439 147.848C15.9505 148.099 16.0199 148.379 16.0519 148.688C16.0839 148.997 16.0999 149.312 16.0999 149.632V155H15.0519V152.832L15.3559 152.96C15.0625 153.701 14.6065 154.267 13.9879 154.656C13.3692 155.045 12.6279 155.24 11.7639 155.24ZM11.8999 154.224C12.4492 154.224 12.9292 154.125 13.3399 153.928C13.7505 153.731 14.0812 153.461 14.3319 153.12C14.5825 152.773 14.7452 152.384 14.8199 151.952C14.8839 151.675 14.9185 151.371 14.9239 151.04C14.9292 150.704 14.9319 150.453 14.9319 150.288L15.3799 150.52C14.9799 150.573 14.5452 150.627 14.0759 150.68C13.6119 150.733 13.1532 150.795 12.6999 150.864C12.2519 150.933 11.8465 151.016 11.4839 151.112C11.2385 151.181 11.0012 151.28 10.7719 151.408C10.5425 151.531 10.3532 151.696 10.2039 151.904C10.0599 152.112 9.98788 152.371 9.98788 152.68C9.98788 152.931 10.0492 153.173 10.1719 153.408C10.2999 153.643 10.5025 153.837 10.7799 153.992C11.0625 154.147 11.4359 154.224 11.8999 154.224ZM21.4865 155.216C20.9692 155.216 20.5158 155.136 20.1265 154.976C19.7425 154.816 19.4145 154.6 19.1425 154.328C18.8758 154.056 18.6598 153.747 18.4945 153.4C18.3292 153.048 18.2092 152.677 18.1345 152.288C18.0598 151.893 18.0225 151.501 18.0225 151.112V146.36H19.2065V150.768C19.2065 151.243 19.2518 151.683 19.3425 152.088C19.4332 152.493 19.5772 152.848 19.7745 153.152C19.9772 153.451 20.2358 153.683 20.5505 153.848C20.8705 154.013 21.2572 154.096 21.7105 154.096C22.1265 154.096 22.4918 154.024 22.8065 153.88C23.1265 153.736 23.3932 153.531 23.6065 153.264C23.8252 152.992 23.9905 152.664 24.1025 152.28C24.2145 151.891 24.2705 151.453 24.2705 150.968L25.1025 151.152C25.1025 152.037 24.9478 152.781 24.6385 153.384C24.3292 153.987 23.9025 154.443 23.3585 154.752C22.8145 155.061 22.1905 155.216 21.4865 155.216ZM24.3905 155V152.872H24.2705V146.36H25.4465V155H24.3905ZM33.9225 155V150.592C33.9225 150.112 33.8772 149.672 33.7865 149.272C33.6958 148.867 33.5492 148.515 33.3465 148.216C33.1492 147.912 32.8905 147.677 32.5705 147.512C32.2558 147.347 31.8718 147.264 31.4185 147.264C31.0025 147.264 30.6345 147.336 30.3145 147.48C29.9998 147.624 29.7332 147.832 29.5145 148.104C29.3012 148.371 29.1385 148.696 29.0265 149.08C28.9145 149.464 28.8585 149.901 28.8585 150.392L28.0265 150.208C28.0265 149.323 28.1812 148.579 28.4905 147.976C28.7998 147.373 29.2265 146.917 29.7705 146.608C30.3145 146.299 30.9385 146.144 31.6425 146.144C32.1598 146.144 32.6105 146.224 32.9945 146.384C33.3838 146.544 33.7118 146.76 33.9785 147.032C34.2505 147.304 34.4692 147.616 34.6345 147.968C34.7998 148.315 34.9198 148.685 34.9945 149.08C35.0692 149.469 35.1065 149.859 35.1065 150.248V155H33.9225ZM27.6745 155V146.36H28.7385V148.488H28.8585V155H27.6745ZM40.704 155.24C39.8347 155.24 39.0987 155.045 38.496 154.656C37.8933 154.267 37.4347 153.731 37.12 153.048C36.8107 152.36 36.6507 151.571 36.64 150.68C36.6507 149.773 36.816 148.979 37.136 148.296C37.456 147.608 37.9173 147.075 38.52 146.696C39.1227 146.312 39.8533 146.12 40.712 146.12C41.5867 146.12 42.3467 146.333 42.992 146.76C43.6427 147.187 44.088 147.771 44.328 148.512L43.176 148.88C42.9733 148.363 42.6507 147.963 42.208 147.68C41.7707 147.392 41.2693 147.248 40.704 147.248C40.0693 147.248 39.544 147.395 39.128 147.688C38.712 147.976 38.4027 148.379 38.2 148.896C37.9973 149.413 37.8933 150.008 37.888 150.68C37.8987 151.715 38.1387 152.547 38.608 153.176C39.0773 153.8 39.776 154.112 40.704 154.112C41.2907 154.112 41.7893 153.979 42.2 153.712C42.616 153.44 42.9307 153.045 43.144 152.528L44.328 152.88C44.008 153.648 43.5387 154.235 42.92 154.64C42.3013 155.04 41.5627 155.24 40.704 155.24ZM52.2194 155V150.592C52.2194 150.112 52.174 149.672 52.0834 149.272C51.9927 148.867 51.846 148.515 51.6434 148.216C51.446 147.912 51.1874 147.677 50.8674 147.512C50.5527 147.347 50.1687 147.264 49.7154 147.264C49.2994 147.264 48.9314 147.336 48.6114 147.48C48.2967 147.624 48.03 147.832 47.8114 148.104C47.598 148.371 47.4354 148.696 47.3234 149.08C47.2114 149.464 47.1554 149.901 47.1554 150.392L46.3234 150.208C46.3234 149.323 46.478 148.579 46.7874 147.976C47.0967 147.373 47.5234 146.917 48.0674 146.608C48.6114 146.299 49.2354 146.144 49.9394 146.144C50.4567 146.144 50.9074 146.224 51.2914 146.384C51.6807 146.544 52.0087 146.76 52.2754 147.032C52.5474 147.304 52.766 147.616 52.9314 147.968C53.0967 148.315 53.2167 148.685 53.2914 149.08C53.366 149.469 53.4034 149.859 53.4034 150.248V155H52.2194ZM45.9714 155V143.48H47.0354V149.984H47.1554V155H45.9714ZM55.6394 144.72V143.4H56.8154V144.72H55.6394ZM55.6394 155V146.36H56.8154V155H55.6394ZM65.4538 155V150.592C65.4538 150.112 65.4084 149.672 65.3178 149.272C65.2271 148.867 65.0804 148.515 64.8778 148.216C64.6804 147.912 64.4218 147.677 64.1018 147.512C63.7871 147.347 63.4031 147.264 62.9498 147.264C62.5338 147.264 62.1658 147.336 61.8458 147.48C61.5311 147.624 61.2644 147.832 61.0458 148.104C60.8324 148.371 60.6698 148.696 60.5578 149.08C60.4458 149.464 60.3898 149.901 60.3898 150.392L59.5578 150.208C59.5578 149.323 59.7124 148.579 60.0218 147.976C60.3311 147.373 60.7578 146.917 61.3018 146.608C61.8458 146.299 62.4698 146.144 63.1738 146.144C63.6911 146.144 64.1418 146.224 64.5258 146.384C64.9151 146.544 65.2431 146.76 65.5098 147.032C65.7818 147.304 66.0004 147.616 66.1658 147.968C66.3311 148.315 66.4511 148.685 66.5258 149.08C66.6004 149.469 66.6378 149.859 66.6378 150.248V155H65.4538ZM59.2058 155V146.36H60.2698V148.488H60.3898V155H59.2058ZM72.1458 159.08C71.7031 159.08 71.2658 159.013 70.8338 158.88C70.4071 158.752 70.0124 158.547 69.6497 158.264C69.2871 157.987 68.9831 157.624 68.7378 157.176L69.8018 156.584C70.0418 157.064 70.3778 157.408 70.8098 157.616C71.2471 157.829 71.6924 157.936 72.1458 157.936C72.7698 157.936 73.2738 157.819 73.6578 157.584C74.0471 157.355 74.3298 157.013 74.5058 156.56C74.6818 156.107 74.7671 155.541 74.7618 154.864V152.56H74.8978V146.36H75.9458V154.88C75.9458 155.125 75.9378 155.36 75.9218 155.584C75.9111 155.813 75.8871 156.037 75.8498 156.256C75.7484 156.901 75.5378 157.432 75.2178 157.848C74.9031 158.264 74.4871 158.573 73.9698 158.776C73.4578 158.979 72.8498 159.08 72.1458 159.08ZM72.0658 155.24C71.2604 155.24 70.5724 155.04 70.0018 154.64C69.4311 154.235 68.9938 153.688 68.6898 153C68.3858 152.312 68.2338 151.536 68.2338 150.672C68.2338 149.813 68.3831 149.04 68.6818 148.352C68.9858 147.664 69.4204 147.12 69.9858 146.72C70.5511 146.32 71.2284 146.12 72.0178 146.12C72.8284 146.12 73.5111 146.317 74.0658 146.712C74.6204 147.107 75.0391 147.648 75.3218 148.336C75.6098 149.019 75.7538 149.797 75.7538 150.672C75.7538 151.531 75.6124 152.307 75.3298 153C75.0471 153.688 74.6311 154.235 74.0818 154.64C73.5324 155.04 72.8604 155.24 72.0658 155.24ZM72.1858 154.144C72.7991 154.144 73.3058 153.995 73.7058 153.696C74.1058 153.397 74.4044 152.987 74.6018 152.464C74.7991 151.936 74.8978 151.339 74.8978 150.672C74.8978 149.995 74.7991 149.397 74.6018 148.88C74.4044 148.357 74.1058 147.949 73.7058 147.656C73.3111 147.363 72.8124 147.216 72.2098 147.216C71.5911 147.216 71.0791 147.368 70.6738 147.672C70.2684 147.976 69.9671 148.389 69.7698 148.912C69.5778 149.435 69.4818 150.021 69.4818 150.672C69.4818 151.328 69.5804 151.92 69.7778 152.448C69.9804 152.971 70.2818 153.384 70.6818 153.688C71.0818 153.992 71.5831 154.144 72.1858 154.144ZM86.0896 155C85.6043 155.101 85.1243 155.141 84.6496 155.12C84.1803 155.099 83.759 154.997 83.3856 154.816C83.0176 154.635 82.7376 154.352 82.5456 153.968C82.391 153.648 82.3056 153.325 82.2896 153C82.279 152.669 82.2736 152.293 82.2736 151.872V143.96H83.4416V151.824C83.4416 152.187 83.4443 152.491 83.4496 152.736C83.4603 152.976 83.5163 153.189 83.6176 153.376C83.8096 153.733 84.1136 153.947 84.5296 154.016C84.951 154.085 85.471 154.069 86.0896 153.968V155ZM80.4256 147.368V146.36H86.0896V147.368H80.4256ZM94.0319 155V150.592C94.0319 150.112 93.9865 149.672 93.8959 149.272C93.8052 148.867 93.6585 148.515 93.4559 148.216C93.2585 147.912 92.9999 147.677 92.6799 147.512C92.3652 147.347 91.9812 147.264 91.5279 147.264C91.1119 147.264 90.7439 147.336 90.4239 147.48C90.1092 147.624 89.8425 147.832 89.6239 148.104C89.4105 148.371 89.2479 148.696 89.1359 149.08C89.0239 149.464 88.9679 149.901 88.9679 150.392L88.1359 150.208C88.1359 149.323 88.2905 148.579 88.5999 147.976C88.9092 147.373 89.3359 146.917 89.8799 146.608C90.4239 146.299 91.0479 146.144 91.7519 146.144C92.2692 146.144 92.7199 146.224 93.1039 146.384C93.4932 146.544 93.8212 146.76 94.0879 147.032C94.3599 147.304 94.5785 147.616 94.7439 147.968C94.9092 148.315 95.0292 148.685 95.1039 149.08C95.1785 149.469 95.2159 149.859 95.2159 150.248V155H94.0319ZM87.7839 155V143.48H88.8479V149.984H88.9679V155H87.7839ZM100.948 155.24C100.105 155.24 99.3745 155.053 98.7559 154.68C98.1425 154.307 97.6652 153.781 97.3239 153.104C96.9825 152.427 96.8119 151.632 96.8119 150.72C96.8119 149.776 96.9799 148.96 97.3159 148.272C97.6519 147.584 98.1239 147.053 98.7319 146.68C99.3452 146.307 100.068 146.12 100.9 146.12C101.753 146.12 102.481 146.317 103.084 146.712C103.687 147.101 104.143 147.661 104.452 148.392C104.761 149.123 104.903 149.995 104.876 151.008H103.676V150.592C103.655 149.472 103.412 148.627 102.948 148.056C102.489 147.485 101.817 147.2 100.932 147.2C100.004 147.2 99.2919 147.501 98.7959 148.104C98.3052 148.707 98.0599 149.565 98.0599 150.68C98.0599 151.768 98.3052 152.613 98.7959 153.216C99.2919 153.813 99.9932 154.112 100.9 154.112C101.519 154.112 102.057 153.971 102.516 153.688C102.98 153.4 103.345 152.987 103.612 152.448L104.708 152.872C104.367 153.624 103.863 154.208 103.196 154.624C102.535 155.035 101.785 155.24 100.948 155.24ZM97.6439 151.008V150.024H104.244V151.008H97.6439ZM112.326 155.24C111.676 155.24 111.129 155.123 110.686 154.888C110.249 154.653 109.921 154.341 109.702 153.952C109.484 153.563 109.374 153.139 109.374 152.68C109.374 152.211 109.468 151.811 109.654 151.48C109.846 151.144 110.105 150.869 110.43 150.656C110.761 150.443 111.142 150.28 111.574 150.168C112.012 150.061 112.494 149.968 113.022 149.888C113.556 149.803 114.076 149.731 114.582 149.672C115.094 149.608 115.542 149.547 115.926 149.488L115.51 149.744C115.526 148.891 115.361 148.259 115.014 147.848C114.668 147.437 114.065 147.232 113.206 147.232C112.614 147.232 112.113 147.365 111.702 147.632C111.297 147.899 111.012 148.32 110.846 148.896L109.702 148.56C109.9 147.787 110.297 147.187 110.894 146.76C111.492 146.333 112.268 146.12 113.222 146.12C114.012 146.12 114.681 146.269 115.23 146.568C115.785 146.861 116.177 147.288 116.406 147.848C116.513 148.099 116.582 148.379 116.614 148.688C116.646 148.997 116.662 149.312 116.662 149.632V155H115.614V152.832L115.918 152.96C115.625 153.701 115.169 154.267 114.55 154.656C113.932 155.045 113.19 155.24 112.326 155.24ZM112.462 154.224C113.012 154.224 113.492 154.125 113.902 153.928C114.313 153.731 114.644 153.461 114.894 153.12C115.145 152.773 115.308 152.384 115.382 151.952C115.446 151.675 115.481 151.371 115.486 151.04C115.492 150.704 115.494 150.453 115.494 150.288L115.942 150.52C115.542 150.573 115.108 150.627 114.638 150.68C114.174 150.733 113.716 150.795 113.262 150.864C112.814 150.933 112.409 151.016 112.046 151.112C111.801 151.181 111.564 151.28 111.334 151.408C111.105 151.531 110.916 151.696 110.766 151.904C110.622 152.112 110.55 152.371 110.55 152.68C110.55 152.931 110.612 153.173 110.734 153.408C110.862 153.643 111.065 153.837 111.342 153.992C111.625 154.147 111.998 154.224 112.462 154.224ZM122.625 155.24C121.83 155.24 121.158 155.04 120.609 154.64C120.06 154.235 119.644 153.688 119.361 153C119.078 152.307 118.937 151.531 118.937 150.672C118.937 149.797 119.078 149.019 119.361 148.336C119.649 147.648 120.07 147.107 120.625 146.712C121.18 146.317 121.862 146.12 122.673 146.12C123.462 146.12 124.14 146.32 124.705 146.72C125.27 147.12 125.702 147.664 126.001 148.352C126.305 149.04 126.457 149.813 126.457 150.672C126.457 151.536 126.305 152.312 126.001 153C125.697 153.688 125.26 154.235 124.689 154.64C124.118 155.04 123.43 155.24 122.625 155.24ZM118.737 158.84V146.36H119.793V152.864H119.921V158.84H118.737ZM122.505 154.144C123.108 154.144 123.609 153.992 124.009 153.688C124.409 153.384 124.708 152.971 124.905 152.448C125.108 151.92 125.209 151.328 125.209 150.672C125.209 150.021 125.11 149.435 124.913 148.912C124.716 148.389 124.414 147.976 124.009 147.672C123.609 147.368 123.1 147.216 122.481 147.216C121.878 147.216 121.377 147.363 120.977 147.656C120.582 147.949 120.286 148.357 120.089 148.88C119.892 149.397 119.793 149.995 119.793 150.672C119.793 151.339 119.892 151.936 120.089 152.464C120.286 152.987 120.585 153.397 120.985 153.696C121.385 153.995 121.892 154.144 122.505 154.144ZM132.094 155.24C131.299 155.24 130.627 155.04 130.078 154.64C129.528 154.235 129.112 153.688 128.83 153C128.547 152.307 128.406 151.531 128.406 150.672C128.406 149.797 128.547 149.019 128.83 148.336C129.118 147.648 129.539 147.107 130.094 146.712C130.648 146.317 131.331 146.12 132.142 146.12C132.931 146.12 133.608 146.32 134.174 146.72C134.739 147.12 135.171 147.664 135.47 148.352C135.774 149.04 135.926 149.813 135.926 150.672C135.926 151.536 135.774 152.312 135.47 153C135.166 153.688 134.728 154.235 134.158 154.64C133.587 155.04 132.899 155.24 132.094 155.24ZM128.206 158.84V146.36H129.262V152.864H129.39V158.84H128.206ZM131.974 154.144C132.576 154.144 133.078 153.992 133.478 153.688C133.878 153.384 134.176 152.971 134.374 152.448C134.576 151.92 134.678 151.328 134.678 150.672C134.678 150.021 134.579 149.435 134.382 148.912C134.184 148.389 133.883 147.976 133.478 147.672C133.078 147.368 132.568 147.216 131.95 147.216C131.347 147.216 130.846 147.363 130.446 147.656C130.051 147.949 129.755 148.357 129.558 148.88C129.36 149.397 129.262 149.995 129.262 150.672C129.262 151.339 129.36 151.936 129.558 152.464C129.755 152.987 130.054 153.397 130.454 153.696C130.854 153.995 131.36 154.144 131.974 154.144ZM137.843 155V143.24H139.019V155H137.843ZM141.577 144.72V143.4H142.753V144.72H141.577ZM141.577 155V146.36H142.753V155H141.577ZM148.735 155.24C147.866 155.24 147.13 155.045 146.527 154.656C145.925 154.267 145.466 153.731 145.151 153.048C144.842 152.36 144.682 151.571 144.671 150.68C144.682 149.773 144.847 148.979 145.167 148.296C145.487 147.608 145.949 147.075 146.551 146.696C147.154 146.312 147.885 146.12 148.743 146.12C149.618 146.12 150.378 146.333 151.023 146.76C151.674 147.187 152.119 147.771 152.359 148.512L151.207 148.88C151.005 148.363 150.682 147.963 150.239 147.68C149.802 147.392 149.301 147.248 148.735 147.248C148.101 147.248 147.575 147.395 147.159 147.688C146.743 147.976 146.434 148.379 146.231 148.896C146.029 149.413 145.925 150.008 145.919 150.68C145.93 151.715 146.17 152.547 146.639 153.176C147.109 153.8 147.807 154.112 148.735 154.112C149.322 154.112 149.821 153.979 150.231 153.712C150.647 153.44 150.962 153.045 151.175 152.528L152.359 152.88C152.039 153.648 151.57 154.235 150.951 154.64C150.333 155.04 149.594 155.24 148.735 155.24ZM156.42 155.24C155.769 155.24 155.223 155.123 154.78 154.888C154.343 154.653 154.015 154.341 153.796 153.952C153.577 153.563 153.468 153.139 153.468 152.68C153.468 152.211 153.561 151.811 153.748 151.48C153.94 151.144 154.199 150.869 154.524 150.656C154.855 150.443 155.236 150.28 155.668 150.168C156.105 150.061 156.588 149.968 157.116 149.888C157.649 149.803 158.169 149.731 158.676 149.672C159.188 149.608 159.636 149.547 160.02 149.488L159.604 149.744C159.62 148.891 159.455 148.259 159.108 147.848C158.761 147.437 158.159 147.232 157.3 147.232C156.708 147.232 156.207 147.365 155.796 147.632C155.391 147.899 155.105 148.32 154.94 148.896L153.796 148.56C153.993 147.787 154.391 147.187 154.988 146.76C155.585 146.333 156.361 146.12 157.316 146.12C158.105 146.12 158.775 146.269 159.324 146.568C159.879 146.861 160.271 147.288 160.5 147.848C160.607 148.099 160.676 148.379 160.708 148.688C160.74 148.997 160.756 149.312 160.756 149.632V155H159.708V152.832L160.012 152.96C159.719 153.701 159.263 154.267 158.644 154.656C158.025 155.045 157.284 155.24 156.42 155.24ZM156.556 154.224C157.105 154.224 157.585 154.125 157.996 153.928C158.407 153.731 158.737 153.461 158.988 153.12C159.239 152.773 159.401 152.384 159.476 151.952C159.54 151.675 159.575 151.371 159.58 151.04C159.585 150.704 159.588 150.453 159.588 150.288L160.036 150.52C159.636 150.573 159.201 150.627 158.732 150.68C158.268 150.733 157.809 150.795 157.356 150.864C156.908 150.933 156.503 151.016 156.14 151.112C155.895 151.181 155.657 151.28 155.428 151.408C155.199 151.531 155.009 151.696 154.86 151.904C154.716 152.112 154.644 152.371 154.644 152.68C154.644 152.931 154.705 153.173 154.828 153.408C154.956 153.643 155.159 153.837 155.436 153.992C155.719 154.147 156.092 154.224 156.556 154.224ZM167.543 155C167.057 155.101 166.577 155.141 166.103 155.12C165.633 155.099 165.212 154.997 164.839 154.816C164.471 154.635 164.191 154.352 163.999 153.968C163.844 153.648 163.759 153.325 163.743 153C163.732 152.669 163.727 152.293 163.727 151.872V143.96H164.895V151.824C164.895 152.187 164.897 152.491 164.903 152.736C164.913 152.976 164.969 153.189 165.071 153.376C165.263 153.733 165.567 153.947 165.983 154.016C166.404 154.085 166.924 154.069 167.543 153.968V155ZM161.879 147.368V146.36H167.543V147.368H161.879ZM169.405 144.72V143.4H170.581V144.72H169.405ZM169.405 155V146.36H170.581V155H169.405ZM176.587 155.24C175.729 155.24 174.995 155.045 174.387 154.656C173.779 154.267 173.313 153.728 172.987 153.04C172.662 152.352 172.499 151.563 172.499 150.672C172.499 149.765 172.665 148.971 172.995 148.288C173.326 147.605 173.795 147.075 174.403 146.696C175.017 146.312 175.745 146.12 176.587 146.12C177.451 146.12 178.187 146.315 178.795 146.704C179.409 147.088 179.875 147.624 180.195 148.312C180.521 148.995 180.683 149.781 180.683 150.672C180.683 151.579 180.521 152.376 180.195 153.064C179.87 153.747 179.401 154.28 178.787 154.664C178.174 155.048 177.441 155.24 176.587 155.24ZM176.587 154.112C177.547 154.112 178.262 153.795 178.731 153.16C179.201 152.52 179.435 151.691 179.435 150.672C179.435 149.627 179.198 148.795 178.723 148.176C178.254 147.557 177.542 147.248 176.587 147.248C175.942 147.248 175.409 147.395 174.987 147.688C174.571 147.976 174.259 148.379 174.051 148.896C173.849 149.408 173.747 150 173.747 150.672C173.747 151.712 173.987 152.547 174.467 153.176C174.947 153.8 175.654 154.112 176.587 154.112ZM188.688 155V150.592C188.688 150.112 188.643 149.672 188.552 149.272C188.461 148.867 188.315 148.515 188.112 148.216C187.915 147.912 187.656 147.677 187.336 147.512C187.021 147.347 186.637 147.264 186.184 147.264C185.768 147.264 185.4 147.336 185.08 147.48C184.765 147.624 184.499 147.832 184.28 148.104C184.067 148.371 183.904 148.696 183.792 149.08C183.68 149.464 183.624 149.901 183.624 150.392L182.792 150.208C182.792 149.323 182.947 148.579 183.256 147.976C183.565 147.373 183.992 146.917 184.536 146.608C185.08 146.299 185.704 146.144 186.408 146.144C186.925 146.144 187.376 146.224 187.76 146.384C188.149 146.544 188.477 146.76 188.744 147.032C189.016 147.304 189.235 147.616 189.4 147.968C189.565 148.315 189.685 148.685 189.76 149.08C189.835 149.469 189.872 149.859 189.872 150.248V155H188.688ZM182.44 155V146.36H183.504V148.488H183.624V155H182.44ZM199.855 155C199.37 155.101 198.89 155.141 198.415 155.12C197.946 155.099 197.525 154.997 197.151 154.816C196.783 154.635 196.503 154.352 196.311 153.968C196.157 153.648 196.071 153.325 196.055 153C196.045 152.669 196.039 152.293 196.039 151.872V143.96H197.207V151.824C197.207 152.187 197.21 152.491 197.215 152.736C197.226 152.976 197.282 153.189 197.383 153.376C197.575 153.733 197.879 153.947 198.295 154.016C198.717 154.085 199.237 154.069 199.855 153.968V155ZM194.191 147.368V146.36H199.855V147.368H194.191ZM204.853 155.24C203.994 155.24 203.261 155.045 202.653 154.656C202.045 154.267 201.578 153.728 201.253 153.04C200.928 152.352 200.765 151.563 200.765 150.672C200.765 149.765 200.93 148.971 201.261 148.288C201.592 147.605 202.061 147.075 202.669 146.696C203.282 146.312 204.01 146.12 204.853 146.12C205.717 146.12 206.453 146.315 207.061 146.704C207.674 147.088 208.141 147.624 208.461 148.312C208.786 148.995 208.949 149.781 208.949 150.672C208.949 151.579 208.786 152.376 208.461 153.064C208.136 153.747 207.666 154.28 207.053 154.664C206.44 155.048 205.706 155.24 204.853 155.24ZM204.853 154.112C205.813 154.112 206.528 153.795 206.997 153.16C207.466 152.52 207.701 151.691 207.701 150.672C207.701 149.627 207.464 148.795 206.989 148.176C206.52 147.557 205.808 147.248 204.853 147.248C204.208 147.248 203.674 147.395 203.253 147.688C202.837 147.976 202.525 148.379 202.317 148.896C202.114 149.408 202.013 150 202.013 150.672C202.013 151.712 202.253 152.547 202.733 153.176C203.213 153.8 203.92 154.112 204.853 154.112ZM218.621 155C218.136 155.101 217.656 155.141 217.181 155.12C216.712 155.099 216.29 154.997 215.917 154.816C215.549 154.635 215.269 154.352 215.077 153.968C214.922 153.648 214.837 153.325 214.821 153C214.81 152.669 214.805 152.293 214.805 151.872V143.96H215.973V151.824C215.973 152.187 215.976 152.491 215.981 152.736C215.992 152.976 216.048 153.189 216.149 153.376C216.341 153.733 216.645 153.947 217.061 154.016C217.482 154.085 218.002 154.069 218.621 153.968V155ZM212.957 147.368V146.36H218.621V147.368H212.957ZM226.563 155V150.592C226.563 150.112 226.518 149.672 226.427 149.272C226.336 148.867 226.19 148.515 225.987 148.216C225.79 147.912 225.531 147.677 225.211 147.512C224.896 147.347 224.512 147.264 224.059 147.264C223.643 147.264 223.275 147.336 222.955 147.48C222.64 147.624 222.374 147.832 222.155 148.104C221.942 148.371 221.779 148.696 221.667 149.08C221.555 149.464 221.499 149.901 221.499 150.392L220.667 150.208C220.667 149.323 220.822 148.579 221.131 147.976C221.44 147.373 221.867 146.917 222.411 146.608C222.955 146.299 223.579 146.144 224.283 146.144C224.8 146.144 225.251 146.224 225.635 146.384C226.024 146.544 226.352 146.76 226.619 147.032C226.891 147.304 227.11 147.616 227.275 147.968C227.44 148.315 227.56 148.685 227.635 149.08C227.71 149.469 227.747 149.859 227.747 150.248V155H226.563ZM220.315 155V143.48H221.379V149.984H221.499V155H220.315ZM233.479 155.24C232.636 155.24 231.906 155.053 231.287 154.68C230.674 154.307 230.196 153.781 229.855 153.104C229.514 152.427 229.343 151.632 229.343 150.72C229.343 149.776 229.511 148.96 229.847 148.272C230.183 147.584 230.655 147.053 231.263 146.68C231.876 146.307 232.599 146.12 233.431 146.12C234.284 146.12 235.012 146.317 235.615 146.712C236.218 147.101 236.674 147.661 236.983 148.392C237.292 149.123 237.434 149.995 237.407 151.008H236.207V150.592C236.186 149.472 235.943 148.627 235.479 148.056C235.02 147.485 234.348 147.2 233.463 147.2C232.535 147.2 231.823 147.501 231.327 148.104C230.836 148.707 230.591 149.565 230.591 150.68C230.591 151.768 230.836 152.613 231.327 153.216C231.823 153.813 232.524 154.112 233.431 154.112C234.05 154.112 234.588 153.971 235.047 153.688C235.511 153.4 235.876 152.987 236.143 152.448L237.239 152.872C236.898 153.624 236.394 154.208 235.727 154.624C235.066 155.035 234.316 155.24 233.479 155.24ZM230.175 151.008V150.024H236.775V151.008H230.175ZM11.424 181L11.432 175.328C11.432 174.661 11.2453 174.139 10.872 173.76C10.504 173.376 10.0347 173.184 9.464 173.184C9.13867 173.184 8.82133 173.259 8.512 173.408C8.20267 173.557 7.94667 173.797 7.744 174.128C7.54667 174.459 7.448 174.891 7.448 175.424L6.752 175.224C6.736 174.605 6.856 174.064 7.112 173.6C7.37333 173.136 7.73067 172.776 8.184 172.52C8.64267 172.259 9.16 172.128 9.736 172.128C10.6053 172.128 11.3013 172.397 11.824 172.936C12.3467 173.469 12.608 174.192 12.608 175.104L12.6 181H11.424ZM1.112 181V172.36H2.168V174.488H2.296V181H1.112ZM6.28 181L6.288 175.408C6.288 174.72 6.104 174.179 5.736 173.784C5.37333 173.384 4.89333 173.184 4.296 173.184C3.69867 173.184 3.216 173.389 2.848 173.8C2.48 174.205 2.296 174.747 2.296 175.424L1.592 175.04C1.592 174.485 1.72267 173.989 1.984 173.552C2.24533 173.109 2.60267 172.763 3.056 172.512C3.50933 172.256 4.024 172.128 4.6 172.128C5.14933 172.128 5.63733 172.245 6.064 172.48C6.496 172.715 6.83467 173.056 7.08 173.504C7.32533 173.952 7.448 174.496 7.448 175.136L7.44 181H6.28ZM17.1545 181.24C16.5038 181.24 15.9572 181.123 15.5145 180.888C15.0772 180.653 14.7492 180.341 14.5305 179.952C14.3118 179.563 14.2025 179.139 14.2025 178.68C14.2025 178.211 14.2958 177.811 14.4825 177.48C14.6745 177.144 14.9332 176.869 15.2585 176.656C15.5892 176.443 15.9705 176.28 16.4025 176.168C16.8398 176.061 17.3225 175.968 17.8505 175.888C18.3838 175.803 18.9038 175.731 19.4105 175.672C19.9225 175.608 20.3705 175.547 20.7545 175.488L20.3385 175.744C20.3545 174.891 20.1892 174.259 19.8425 173.848C19.4958 173.437 18.8932 173.232 18.0345 173.232C17.4425 173.232 16.9412 173.365 16.5305 173.632C16.1252 173.899 15.8398 174.32 15.6745 174.896L14.5305 174.56C14.7278 173.787 15.1252 173.187 15.7225 172.76C16.3198 172.333 17.0958 172.12 18.0505 172.12C18.8398 172.12 19.5092 172.269 20.0585 172.568C20.6132 172.861 21.0052 173.288 21.2345 173.848C21.3412 174.099 21.4105 174.379 21.4425 174.688C21.4745 174.997 21.4905 175.312 21.4905 175.632V181H20.4425V178.832L20.7465 178.96C20.4532 179.701 19.9972 180.267 19.3785 180.656C18.7598 181.045 18.0185 181.24 17.1545 181.24ZM17.2905 180.224C17.8398 180.224 18.3198 180.125 18.7305 179.928C19.1412 179.731 19.4718 179.461 19.7225 179.12C19.9732 178.773 20.1358 178.384 20.2105 177.952C20.2745 177.675 20.3092 177.371 20.3145 177.04C20.3198 176.704 20.3225 176.453 20.3225 176.288L20.7705 176.52C20.3705 176.573 19.9358 176.627 19.4665 176.68C19.0025 176.733 18.5438 176.795 18.0905 176.864C17.6425 176.933 17.2372 177.016 16.8745 177.112C16.6292 177.181 16.3918 177.28 16.1625 177.408C15.9332 177.531 15.7438 177.696 15.5945 177.904C15.4505 178.112 15.3785 178.371 15.3785 178.68C15.3785 178.931 15.4398 179.173 15.5625 179.408C15.6905 179.643 15.8932 179.837 16.1705 179.992C16.4532 180.147 16.8265 180.224 17.2905 180.224ZM23.5731 181V172.36H24.6291V174.44L24.4211 174.168C24.5171 173.912 24.6425 173.677 24.7971 173.464C24.9518 173.245 25.1198 173.067 25.3011 172.928C25.5251 172.731 25.7865 172.581 26.0851 172.48C26.3838 172.373 26.6851 172.312 26.9891 172.296C27.2931 172.275 27.5705 172.296 27.8211 172.36V173.464C27.5065 173.384 27.1625 173.365 26.7891 173.408C26.4158 173.451 26.0718 173.6 25.7571 173.856C25.4691 174.08 25.2531 174.349 25.1091 174.664C24.9651 174.973 24.8691 175.304 24.8211 175.656C24.7731 176.003 24.7491 176.347 24.7491 176.688V181H23.5731ZM29.3308 181L29.3388 169.48H30.5228V176.52L34.3788 172.36H35.9468L31.8988 176.68L36.4748 181H34.7628L30.5228 176.84V181H29.3308ZM40.776 181.24C39.9333 181.24 39.2027 181.053 38.584 180.68C37.9707 180.307 37.4933 179.781 37.152 179.104C36.8107 178.427 36.64 177.632 36.64 176.72C36.64 175.776 36.808 174.96 37.144 174.272C37.48 173.584 37.952 173.053 38.56 172.68C39.1733 172.307 39.896 172.12 40.728 172.12C41.5813 172.12 42.3093 172.317 42.912 172.712C43.5147 173.101 43.9707 173.661 44.28 174.392C44.5893 175.123 44.7307 175.995 44.704 177.008H43.504V176.592C43.4827 175.472 43.24 174.627 42.776 174.056C42.3173 173.485 41.6453 173.2 40.76 173.2C39.832 173.2 39.12 173.501 38.624 174.104C38.1333 174.707 37.888 175.565 37.888 176.68C37.888 177.768 38.1333 178.613 38.624 179.216C39.12 179.813 39.8213 180.112 40.728 180.112C41.3467 180.112 41.8853 179.971 42.344 179.688C42.808 179.4 43.1733 178.987 43.44 178.448L44.536 178.872C44.1947 179.624 43.6907 180.208 43.024 180.624C42.3627 181.035 41.6133 181.24 40.776 181.24ZM37.472 177.008V176.024H44.072V177.008H37.472ZM51.1834 181C50.698 181.101 50.218 181.141 49.7434 181.12C49.274 181.099 48.8527 180.997 48.4794 180.816C48.1114 180.635 47.8314 180.352 47.6394 179.968C47.4847 179.648 47.3994 179.325 47.3834 179C47.3727 178.669 47.3674 178.293 47.3674 177.872V169.96H48.5354V177.824C48.5354 178.187 48.538 178.491 48.5434 178.736C48.554 178.976 48.61 179.189 48.7114 179.376C48.9034 179.733 49.2074 179.947 49.6234 180.016C50.0447 180.085 50.5647 180.069 51.1834 179.968V181ZM45.5194 173.368V172.36H51.1834V173.368H45.5194Z" fill="black"/>
</svg>

